<?xml version="1.0" encoding="UTF-8"?>
<svg id="a" data-name="圖層 1" xmlns="http://www.w3.org/2000/svg" xmlns:xlink="http://www.w3.org/1999/xlink" viewBox="0 0 48 48">
  <defs>
    <linearGradient id="b" data-name="未命名漸層 88" x1="8.71" y1="9.54" x2="39.29" y2="9.54" gradientUnits="userSpaceOnUse">
      <stop offset="0" stop-color="#0468ad"/>
      <stop offset=".15" stop-color="#0468ad"/>
      <stop offset=".27" stop-color="#0b72b6"/>
      <stop offset=".43" stop-color="#0e7cbe"/>
      <stop offset=".56" stop-color="#287bbe"/>
      <stop offset=".69" stop-color="#4272b6"/>
      <stop offset=".9" stop-color="#5367ac"/>
      <stop offset="1" stop-color="#5f5ca0"/>
    </linearGradient>
  </defs>
  <path d="m39.22,4.82l-5.2,14.27c-.28-.22-.55-.43-.84-.63-1.94-1.35-4.19-2.27-6.63-2.66-.83-.13-1.68-.2-2.55-.2s-1.73.07-2.56.21c-2.43.38-4.69,1.31-6.63,2.65-.29.2-.57.41-.84.63l-5.2-14.27c-.21-.58.09-1.21.66-1.42L18.59.06c.58-.2,1.21.09,1.42.66l4,10.97L27.99.73c.21-.58.84-.86,1.42-.66l9.14,3.34c.58.21.88.84.66,1.42Z" style="fill: url(#b); stroke-width: 0px;"/>
  <path d="m34.02,19.09c-.28-.22-.55-.43-.84-.63-1.94-1.35-4.19-2.27-6.63-2.66-.83-.13-1.68-.2-2.55-.2s-1.73.07-2.56.21c-2.43.38-4.69,1.31-6.63,2.65-.29.2-.57.41-.84.63-3.76,2.95-6.17,7.55-6.17,12.71,0,8.95,7.25,16.2,16.2,16.2s16.19-7.25,16.19-16.2c0-5.16-2.42-9.76-6.17-12.71Zm-1.62,11.77l-3.85,2.79c-.23.18-.33.48-.24.75l1.47,4.52c.3.92-.76,1.7-1.55,1.12l-3.85-2.79c-.23-.17-.55-.17-.79,0l-3.85,2.79c-.79.58-1.85-.2-1.55-1.12l1.47-4.52c.09-.28-.01-.58-.24-.75l-3.85-2.79c-.79-.58-.39-1.82.59-1.82h4.75c.29,0,.55-.19.64-.47l1.46-4.52c.3-.92,1.62-.92,1.92,0l1.46,4.52c.1.28.35.47.64.47h4.75c.98,0,1.37,1.24.59,1.82Z" style="fill: #f2b21f; stroke-width: 0px;"/>
</svg>