<?xml version="1.0" encoding="UTF-8"?>
<svg id="a" data-name="圖層 1" xmlns="http://www.w3.org/2000/svg" xmlns:xlink="http://www.w3.org/1999/xlink" viewBox="0 0 48 48">
  <defs>
    <linearGradient id="b" data-name="未命名漸層 88" x1="11.57" y1="24" x2="36.43" y2="24" gradientUnits="userSpaceOnUse">
      <stop offset="0" stop-color="#0468ad"/>
      <stop offset=".15" stop-color="#0468ad"/>
      <stop offset=".27" stop-color="#0b72b6"/>
      <stop offset=".43" stop-color="#0e7cbe"/>
      <stop offset=".56" stop-color="#287bbe"/>
      <stop offset=".69" stop-color="#4272b6"/>
      <stop offset=".9" stop-color="#5367ac"/>
      <stop offset="1" stop-color="#5f5ca0"/>
    </linearGradient>
  </defs>
  <path d="m17.05,15.08c0,.27-.02.54-.06.8-2.49.9-4.52,2.72-5.7,5.05h-.08c-3.23,0-5.84-2.62-5.84-5.85s2.61-5.84,5.84-5.84,5.84,2.62,5.84,5.84Z" style="fill: #919caf; stroke-width: 0px;"/>
  <path d="m10.11,38.27v-12.53c0-.75.08-1.47.23-2.17l-1.58-1.57c-.16-.16-.37-.24-.58-.23-3.82.18-6.92,3.37-6.92,7.25v10.02c0,1.43,1.17,2.59,2.59,2.59h.2v3.63c0,.42.33.75.75.75h8.8v-3.19c-2-.54-3.49-2.36-3.49-4.54Z" style="fill: #919caf; stroke-width: 0px;"/>
  <path d="m36.96,9.23c-3.23,0-5.85,2.61-5.85,5.84,0,.3.02.59.07.88,2.38.92,4.35,2.7,5.51,4.95.09,0,.18,0,.27,0,3.22,0,5.84-2.62,5.84-5.84s-2.62-5.84-5.84-5.84Z" style="fill: #919caf; stroke-width: 0px;"/>
  <path d="m39.97,21.75c-.21,0-.43.08-.58.23l-1.7,1.7c.14.66.2,1.35.2,2.05v12.55c0,2.17-1.49,4-3.49,4.52v3.17h8.96c.41,0,.74-.33.74-.74v-3.63h.2c1.43,0,2.6-1.17,2.6-2.6v-10.02c0-3.88-3.09-7.06-6.93-7.25Z" style="fill: #919caf; stroke-width: 0px;"/>
  <path d="m27.95,16.69c-.28-.02-.55.09-.75.29l-2.77,2.77c-.19.19-.5.19-.69,0l-2.79-2.78c-.19-.19-.46-.3-.73-.29-4.79.22-8.65,4.21-8.65,9.06v12.53c0,1.78,1.46,3.24,3.24,3.24h.25v4.53c0,.52.42.93.93.93h15.99c.52,0,.94-.42.94-.94v-4.52h.27c1.78,0,3.22-1.44,3.22-3.22v-12.55c0-4.81-3.75-8.74-8.48-9.05Zm-3.94-15.67c-4.03,0-7.3,3.27-7.3,7.3s3.27,7.3,7.3,7.3,7.3-3.27,7.3-7.3-3.27-7.3-7.3-7.3Z" style="fill: url(#b); stroke-width: 0px;"/>
</svg>