<?xml version="1.0" encoding="UTF-8"?>
<svg id="a" data-name="圖層 5" xmlns="http://www.w3.org/2000/svg" viewBox="0 0 1020.86 1362.91">
  <g>
    <g>
      <path d="m849.86,1361.91c-29.32,0-58.24-7.62-83.62-22.03-24.66-14-45.65-34.13-60.69-58.2-5.48-8.77-15.1-14.11-25.44-14.11s-19.96,5.33-25.44,14.1c-15.04,24.08-36.03,44.2-60.69,58.2-25.39,14.41-54.3,22.03-83.62,22.03s-58.2-7.61-83.57-22c-24.65-13.98-45.63-34.08-60.68-58.13-5.48-8.76-15.09-14.09-25.43-14.09s-19.95,5.32-25.43,14.09c-15.05,24.05-36.03,44.15-60.68,58.13-25.37,14.4-54.27,22-83.57,22-93.74,0-170-76.26-170-170s76.26-170,170-170c29.3,0,58.2,7.61,83.57,22,24.65,13.98,45.63,34.08,60.68,58.13,5.48,8.76,15.09,14.09,25.43,14.09s19.95-5.32,25.43-14.09c15.05-24.05,36.03-44.15,60.68-58.13,25.37-14.4,54.27-22,83.57-22s58.23,7.62,83.62,22.03c24.66,14,45.65,34.13,60.69,58.2,5.48,8.77,15.1,14.1,25.44,14.1s19.96-5.33,25.44-14.11c15.04-24.07,36.03-44.2,60.69-58.2,25.39-14.41,54.3-22.03,83.62-22.03,93.74,0,170,76.26,170,170s-76.26,170-170,170Z" style="fill: #fff; stroke-width: 0px;"/>
      <path d="m849.86,1361.91c-29.32,0-58.24-7.62-83.62-22.03-24.66-14-45.65-34.13-60.69-58.2-5.48-8.77-15.1-14.11-25.44-14.11s-19.96,5.33-25.44,14.1c-15.04,24.08-36.03,44.2-60.69,58.2-25.39,14.41-54.3,22.03-83.62,22.03s-58.2-7.61-83.57-22c-24.65-13.98-45.63-34.08-60.68-58.13-5.48-8.76-15.09-14.09-25.43-14.09s-19.95,5.32-25.43,14.09c-15.05,24.05-36.03,44.15-60.68,58.13-25.37,14.4-54.27,22-83.57,22-93.74,0-170-76.26-170-170s76.26-170,170-170c29.3,0,58.2,7.61,83.57,22,24.65,13.98,45.63,34.08,60.68,58.13,5.48,8.76,15.09,14.09,25.43,14.09s19.95-5.32,25.43-14.09c15.05-24.05,36.03-44.15,60.68-58.13,25.37-14.4,54.27-22,83.57-22s58.23,7.62,83.62,22.03c24.66,14,45.65,34.13,60.69,58.2,5.48,8.77,15.1,14.1,25.44,14.1s19.96-5.33,25.44-14.11c15.04-24.07,36.03-44.2,60.69-58.2,25.39-14.41,54.3-22.03,83.62-22.03,93.74,0,170,76.26,170,170s-76.26,170-170,170Z" style="fill: none; stroke: #333; stroke-miterlimit: 10; stroke-width: 2px;"/>
    </g>
    <path d="m849.86,1341.04c-52.03,0-99.64-26.48-127.35-70.83-9.14-14.62-25.16-23.51-42.41-23.51s-33.27,8.88-42.4,23.51c-27.71,44.35-75.32,70.83-127.35,70.83s-99.58-26.45-127.29-70.75c-9.14-14.61-25.16-23.48-42.39-23.48s-33.25,8.87-42.39,23.48c-27.72,44.3-75.3,70.75-127.29,70.75-82.71,0-150-67.29-150-150s67.29-150,150-150c51.99,0,99.58,26.45,127.29,70.75,9.14,14.61,25.16,23.48,42.39,23.48s33.25-8.87,42.39-23.48c27.72-44.3,75.3-70.75,127.29-70.75s99.64,26.48,127.35,70.83c9.14,14.62,25.16,23.51,42.4,23.51s33.27-8.88,42.41-23.51c27.71-44.35,75.31-70.83,127.35-70.83,82.71,0,150,67.29,150,150s-67.29,150-150,150Z" style="fill: #f2f2f2; stroke-width: 0px;"/>
  </g>
  <path d="m987.55,296.71v300.52c0,49.11-28.09,93.88-72.31,115.25l-349.12,168.71c-35.18,17-76.2,17-111.39,0l-349.12-168.71c-44.21-21.37-72.31-66.14-72.31-115.25v-300.52c0-49.11,28.09-93.88,72.31-115.25L454.74,12.75c35.18-17,76.2-17,111.39,0l349.12,168.71c44.21,21.37,72.31,66.14,72.31,115.25Z" style="fill: #cce7f6; stroke-width: 0px;"/>
  <path d="m510.47,826.94h-.31s.02-2,.02-2h.25c1.23,0,2.44-.05,3.66-.14l.15,1.99c-1.26.1-2.53.15-3.78.15Zm-4.38-.19c-1.36-.12-2.72-.3-4.05-.53l.34-1.97c1.27.22,2.58.39,3.88.51l-.18,1.99Zm12.21-.44l-.32-1.97c1.28-.21,2.57-.47,3.84-.79l.48,1.94c-1.32.33-2.66.6-4,.82Zm-20.25-.96c-1.31-.34-2.62-.74-3.9-1.2l.66-1.89c1.23.43,2.49.82,3.74,1.15l-.51,1.94Zm28.16-1.02l-.64-1.89c1.23-.42,2.46-.89,3.65-1.41l.8,1.83c-1.24.54-2.52,1.04-3.81,1.47Zm-35.85-1.69c-.42-.19-.83-.38-1.24-.58l-2.39-1.15.87-1.8,2.39,1.15c.4.19.79.38,1.2.56l-.82,1.82Zm43.31-1.51l-.87-1.8,3.6-1.74.87,1.8-3.6,1.74Zm-50.55-1.97l-3.6-1.74.87-1.8,3.6,1.74-.87,1.8Zm57.75-1.51l-.87-1.8,3.6-1.74.87,1.8-3.6,1.74Zm-64.96-1.97l-3.6-1.74.87-1.8,3.6,1.74-.87,1.8Zm72.16-1.51l-.87-1.8,3.6-1.74.87,1.8-3.6,1.74Zm-79.36-1.97l-3.6-1.74.87-1.8,3.6,1.74-.87,1.8Zm86.57-1.51l-.87-1.8,3.6-1.74.87,1.8-3.6,1.74Zm-93.77-1.97l-3.6-1.74.87-1.8,3.6,1.74-.87,1.8Zm100.97-1.51l-.87-1.8,3.6-1.74.87,1.8-3.6,1.74Zm-108.17-1.97l-3.6-1.74.87-1.8,3.6,1.74-.87,1.8Zm115.38-1.51l-.87-1.8,3.6-1.74.87,1.8-3.6,1.74Zm-122.58-1.97l-3.6-1.74.87-1.8,3.6,1.74-.87,1.8Zm129.78-1.51l-.87-1.8,3.6-1.74.87,1.8-3.6,1.74Zm-136.98-1.97l-3.6-1.74.87-1.8,3.6,1.74-.87,1.8Zm144.19-1.51l-.87-1.8,3.6-1.74.87,1.8-3.6,1.74Zm-151.39-1.97l-3.6-1.74.87-1.8,3.6,1.74-.87,1.8Zm158.6-1.51l-.87-1.8,3.6-1.74.87,1.8-3.6,1.74Zm-165.8-1.97l-3.6-1.74.87-1.8,3.6,1.74-.87,1.8Zm173-1.51l-.87-1.8,3.6-1.74.87,1.8-3.6,1.74Zm-180.2-1.97l-3.6-1.74.87-1.8,3.6,1.74-.87,1.8Zm187.41-1.51l-.87-1.8,3.6-1.74.87,1.8-3.6,1.74Zm-194.61-1.97l-3.6-1.74.87-1.8,3.6,1.74-.87,1.8Zm201.81-1.51l-.87-1.8,3.6-1.74.87,1.8-3.6,1.74Zm-209.02-1.97l-3.6-1.74.87-1.8,3.6,1.74-.87,1.8Zm216.22-1.51l-.87-1.8,3.6-1.74.87,1.8-3.6,1.74Zm-223.42-1.97l-3.6-1.74.87-1.8,3.6,1.74-.87,1.8Zm230.63-1.51l-.87-1.8,3.6-1.74.87,1.8-3.6,1.74Zm-237.83-1.97l-3.6-1.74.87-1.8,3.6,1.74-.87,1.8Zm245.03-1.51l-.87-1.8,3.6-1.74.87,1.8-3.6,1.74Zm-252.23-1.97l-3.6-1.74.87-1.8,3.6,1.74-.87,1.8Zm259.44-1.51l-.87-1.8,3.6-1.74.87,1.8-3.6,1.74Zm-266.64-1.97l-3.6-1.74.87-1.8,3.6,1.74-.87,1.8Zm273.84-1.51l-.87-1.8,3.6-1.74.87,1.8-3.6,1.74Zm-281.05-1.97l-3.6-1.74.87-1.8,3.6,1.74-.87,1.8Zm288.25-1.51l-.87-1.8,3.6-1.74.87,1.8-3.6,1.74Zm-295.45-1.97l-3.6-1.74.87-1.8,3.6,1.74-.87,1.8Zm302.66-1.51l-.87-1.8,3.6-1.74.87,1.8-3.6,1.74Zm-309.86-1.97l-3.6-1.74.87-1.8,3.6,1.74-.87,1.8Zm317.06-1.51l-.87-1.8,3.6-1.74.87,1.8-3.6,1.74Zm-324.27-1.97l-3.6-1.74.87-1.8,3.6,1.74-.87,1.8Zm331.47-1.51l-.87-1.8,3.6-1.74.87,1.8-3.6,1.74Zm-338.67-1.97l-3.6-1.74.87-1.8,3.6,1.74-.87,1.8Zm345.87-1.51l-.87-1.8,3.6-1.74.87,1.8-3.6,1.74Zm-353.08-1.97l-3.6-1.74.87-1.8,3.6,1.74-.87,1.8Zm360.28-1.51l-.87-1.8,3.6-1.74.87,1.8-3.6,1.74Zm-367.48-1.97l-3.6-1.74.87-1.8,3.6,1.74-.87,1.8Zm374.69-1.51l-.87-1.8,3.6-1.74.87,1.8-3.6,1.74Zm-381.89-1.97l-3.6-1.74.87-1.8,3.6,1.74-.87,1.8Zm389.09-1.51l-.87-1.8,3.6-1.74.87,1.8-3.6,1.74Zm-396.29-1.97l-3.6-1.74.87-1.8,3.6,1.74-.87,1.8Zm403.5-1.51l-.87-1.8,3.6-1.74.87,1.8-3.6,1.74Zm-410.7-1.97l-3.6-1.74.87-1.8,3.6,1.74-.87,1.8Zm417.9-1.51l-.87-1.8,3.6-1.74.87,1.8-3.6,1.74Zm-425.11-1.97l-3.6-1.74.87-1.8,3.6,1.74-.87,1.8Zm432.31-1.51l-.87-1.8,3.6-1.74.87,1.8-3.6,1.74Zm-439.51-1.97l-3.6-1.74.87-1.8,3.6,1.74-.87,1.8Zm446.72-1.51l-.87-1.8,3.6-1.74.87,1.8-3.6,1.74Zm-453.92-1.97l-3.6-1.74.87-1.8,3.6,1.74-.87,1.8Zm461.12-1.51l-.87-1.8,3.6-1.74.87,1.8-3.6,1.74Zm-468.33-1.97l-3.6-1.74.87-1.8,3.6,1.74-.87,1.8Zm475.53-1.51l-.87-1.8,3.6-1.74.87,1.8-3.6,1.74Zm-482.73-1.97l-3.6-1.74.87-1.8,3.6,1.74-.87,1.8Zm489.93-1.51l-.87-1.8,3.6-1.74.87,1.8-3.6,1.74Zm-497.14-1.97l-3.6-1.74.87-1.8,3.6,1.74-.87,1.8Zm504.34-1.51l-.87-1.8,3.6-1.74.87,1.8-3.6,1.74Zm-511.54-1.97l-3.6-1.74.87-1.8,3.6,1.74-.87,1.8Zm518.75-1.51l-.87-1.8,3.6-1.74.87,1.8-3.6,1.74Zm-525.95-1.97l-3.6-1.74.87-1.8,3.6,1.74-.87,1.8Zm533.15-1.51l-.87-1.8,3.6-1.74.87,1.8-3.6,1.74Zm-540.36-1.97l-3.6-1.74.87-1.8,3.6,1.74-.87,1.8Zm547.56-1.51l-.87-1.8,3.6-1.74.87,1.8-3.6,1.74Zm-554.76-1.97l-3.6-1.74.87-1.8,3.6,1.74-.87,1.8Zm561.96-1.51l-.87-1.8,3.6-1.74.87,1.8-3.6,1.74Zm-569.17-1.97l-3.6-1.74.87-1.8,3.6,1.74-.87,1.8Zm576.37-1.51l-.87-1.8,3.6-1.74.87,1.8-3.6,1.74Zm-583.57-1.97l-3.6-1.74.87-1.8,3.6,1.74-.87,1.8Zm590.78-1.51l-.87-1.8,3.6-1.74.87,1.8-3.6,1.74Zm-597.98-1.97l-3.6-1.74.87-1.8,3.6,1.74-.87,1.8Zm605.18-1.51l-.87-1.8,3.6-1.74.87,1.8-3.6,1.74Zm-612.39-1.97l-3.6-1.74.87-1.8,3.6,1.74-.87,1.8Zm619.59-1.51l-.87-1.8,3.6-1.74.87,1.8-3.6,1.74Zm-626.79-1.97l-3.6-1.74.87-1.8,3.6,1.74-.87,1.8Zm634-1.51l-.87-1.8,3.6-1.74.87,1.8-3.6,1.74Zm-641.2-1.97l-3.6-1.74.87-1.8,3.6,1.74-.87,1.8Zm648.4-1.51l-.87-1.8,3.6-1.74.87,1.8-3.6,1.74Zm-655.61-1.97l-3.6-1.74.87-1.8,3.6,1.74-.87,1.8Zm662.81-1.51l-.87-1.8,3.6-1.74.87,1.8-3.6,1.74Zm-670.01-1.97l-3.6-1.74.87-1.8,3.6,1.74-.87,1.8Zm677.21-1.51l-.87-1.8,3.6-1.74.87,1.8-3.6,1.74Zm-684.42-1.97l-3.6-1.74.87-1.8,3.6,1.74-.87,1.8Zm691.62-1.51l-.87-1.8,3.6-1.74.87,1.8-3.6,1.74Zm-698.82-1.97l-3.6-1.74.87-1.8,3.6,1.74-.87,1.8Zm706.02-1.51l-.87-1.8,3.6-1.74.87,1.8-3.6,1.74Zm-713.23-1.97l-3.6-1.74.87-1.8,3.6,1.74-.87,1.8Zm720.43-1.51l-.87-1.8,3.6-1.74.87,1.8-3.6,1.74Zm-727.63-1.97l-3.6-1.74.87-1.8,3.6,1.74-.87,1.8Zm734.84-1.51l-.87-1.8,1.94-.94c.54-.26,1.08-.54,1.61-.82l.94,1.77c-.55.29-1.11.58-1.68.85l-1.94.94Zm-742.06-2.04c-1.19-.65-2.37-1.36-3.5-2.1l1.1-1.67c1.08.71,2.21,1.39,3.36,2.02l-.96,1.76Zm749.2-1.81l-1.08-1.68c1.1-.71,2.17-1.46,3.2-2.25l1.22,1.59c-1.07.82-2.19,1.61-3.34,2.35Zm-756.01-2.68c-1.07-.84-2.11-1.73-3.1-2.65l1.36-1.46c.95.89,1.95,1.74,2.97,2.55l-1.24,1.57Zm762.48-2.29l-1.35-1.48c.96-.88,1.9-1.8,2.78-2.75l1.46,1.36c-.92.99-1.9,1.96-2.9,2.87Zm-768.45-3.27c-.91-1.01-1.79-2.06-2.62-3.13l1.59-1.22c.79,1.03,1.63,2.04,2.51,3l-1.48,1.35Zm783.02-2.09l-1.34-.65.87-1.8,1.34.65-.87,1.8Zm-794.33,0l-.87-1.8,3.6-1.74.87,1.8-3.6,1.74Zm785.3-.61l-1.57-1.24c.8-1.02,1.57-2.09,2.29-3.18l.16.1.48-1,3.6,1.74-.87,1.8-2.07-1c-.64.95-1.32,1.88-2.02,2.77Zm-778.1-2.86l-.54-1.11-.32.21c-.73-1.14-1.43-2.32-2.06-3.52l1.77-.94c.52.98,1.08,1.96,1.67,2.9l2.22-1.07.87,1.8-3.6,1.74Zm774.98-2.39l-3.6-1.74.87-1.8,3.6,1.74-.87,1.8Zm-767.78-1.09l-.87-1.8,3.6-1.74.87,1.8-3.6,1.74Zm775.38-.47l-1.76-.96c.62-1.15,1.21-2.33,1.73-3.51l1.83.81c-.54,1.23-1.15,2.47-1.8,3.66Zm-14.81-1.92l-3.6-1.74.87-1.8,3.6,1.74-.87,1.8Zm-753.37-1.09l-.87-1.8,3.6-1.74.87,1.8-3.6,1.74Zm-19.09-1.15c-.53-1.24-1.02-2.53-1.45-3.81l1.9-.63c.41,1.24.88,2.47,1.39,3.66l-1.84.79Zm765.26-1.23l-3.6-1.74.87-1.8,3.6,1.74-.87,1.8Zm-738.96-1.09l-.87-1.8,3.6-1.74.87,1.8-3.6,1.74Zm764.27-.97l-1.89-.65c.42-1.23.8-2.49,1.12-3.75l1.94.49c-.33,1.31-.73,2.63-1.17,3.91Zm-32.51-1.41l-3.6-1.74.87-1.8,3.6,1.74-.87,1.8Zm-724.55-1.09l-.87-1.8,3.6-1.74.87,1.8-3.6,1.74Zm-36.08-1.93c-.32-1.32-.59-2.67-.79-4l1.98-.31c.2,1.28.45,2.57.76,3.84l-1.94.47Zm753.43-.46l-3.6-1.74.87-1.8,3.6,1.74-.87,1.8Zm-710.15-1.09l-.87-1.8,3.6-1.74.87,1.8-3.6,1.74Zm751.87-1.92l-1.97-.33c.21-1.28.38-2.59.48-3.89l1.99.16c-.11,1.35-.28,2.71-.5,4.05Zm-48.93-.46l-3.6-1.74.87-1.8,3.6,1.74-.87,1.8Zm-695.74-1.09l-.87-1.8,3.6-1.74.87,1.8-3.6,1.74Zm688.53-2.39l-3.6-1.74.87-1.8,3.6,1.74-.87,1.8Zm-740.27-.64c-.08-1.16-.12-2.33-.12-3.5v-.57h2v.57c0,1.12.04,2.24.12,3.35l-1.99.14Zm58.94-.45l-.87-1.8,3.6-1.74.87,1.8-3.6,1.74Zm674.13-2.38l-3.6-1.74.87-1.8,3.6,1.74-.87,1.8Zm64.01-.71h-2v-4h2v4Zm-730.93-.38l-.87-1.8,3.6-1.74.87,1.8-3.6,1.74Zm659.72-2.38l-3.6-1.74.87-1.8,3.6,1.74-.87,1.8Zm-652.51-1.09l-.87-1.8,3.6-1.74.87,1.8-3.6,1.74Zm-71.47-.66h-2v-4h2v4Zm716.79-1.73l-3.6-1.74.87-1.8,3.6,1.74-.87,1.8Zm-638.11-1.09l-.87-1.8,3.6-1.74.87,1.8-3.6,1.74Zm716.52-.66h-2v-4h2v4Zm-85.62-1.73l-3.6-1.74.87-1.8,3.6,1.74-.87,1.8Zm-623.7-1.09l-.87-1.8,3.6-1.74.87,1.8-3.6,1.74Zm-85.88-1.7h-2v-4h2v4Zm702.38-.68l-3.6-1.74.87-1.8,3.6,1.74-.87,1.8Zm-609.29-1.09l-.87-1.8,3.6-1.74.87,1.8-3.6,1.74Zm702.11-1.7h-2v-4h2v4Zm-100.03-.68l-3.6-1.74.87-1.8,3.6,1.74-.87,1.8Zm-594.88-1.09l-.87-1.8,3.6-1.74.87,1.8-3.6,1.74Zm587.68-2.39l-3.6-1.74.87-1.8,3.6,1.74-.87,1.8Zm-687.97-.36h-2v-4h2v4Zm107.5-.74l-.87-1.8,3.6-1.74.87,1.8-3.6,1.74Zm573.27-2.39l-3.6-1.74.87-1.8,3.6,1.74-.87,1.8Zm114.43-.36h-2v-4h2v4Zm-680.5-.74l-.87-1.8,3.6-1.74.87,1.8-3.6,1.74Zm558.86-2.39l-3.6-1.74.87-1.8,3.6,1.74-.87,1.8Zm-551.66-1.09l-.87-1.8,3.6-1.74.87,1.8-3.6,1.74Zm-121.9-.31h-2v-4h2v4Zm666.36-2.08l-3.6-1.74.87-1.8,3.6,1.74-.87,1.8Zm-537.25-1.09l-.87-1.8,3.6-1.74.87,1.8-3.6,1.74Zm666.09-.31h-2v-4h2v4Zm-136.05-2.08l-3.6-1.74.87-1.8,3.6,1.74-.87,1.8Zm-522.84-1.09l-.87-1.8,3.6-1.74.87,1.8-3.6,1.74Zm-136.31-1.35h-2v-4h2v4Zm651.95-1.04l-3.6-1.74.87-1.8,3.6,1.74-.87,1.8Zm-508.43-1.09l-.87-1.8,3.6-1.74.87,1.8-3.6,1.74Zm651.68-1.35h-2v-4h2v4Zm-150.45-1.04l-3.6-1.74.87-1.8,3.6,1.74-.87,1.8Zm-494.03-1.09l-.87-1.8,3.6-1.74.87,1.8-3.6,1.74Zm486.82-2.39l-3.6-1.74.87-1.8,3.6,1.74-.87,1.8Zm-637.54,0h-2v-4h2v4Zm157.92-1.09l-.87-1.8,3.6-1.74.87,1.8-3.6,1.74Zm472.41-2.39l-3.6-1.74.87-1.8,3.6,1.74-.87,1.8Zm164.86,0h-2v-4h2v4Zm-630.07-1.09l-.87-1.8,3.6-1.74.87,1.8-3.6,1.74Zm458.01-2.39l-3.6-1.74.87-1.8,3.6,1.74-.87,1.8Zm-623.13-1.05h-2v-4h2v4Zm172.33-.04l-.87-1.8,3.6-1.74.87,1.8-3.6,1.74Zm443.6-2.39l-3.6-1.74.87-1.8,3.6,1.74-.87,1.8Zm179.27-1.05h-2v-4h2v4Zm-615.66-.04l-.87-1.8,3.6-1.74.87,1.8-3.6,1.74Zm429.19-2.39l-3.6-1.74.87-1.8,3.6,1.74-.87,1.8Zm-421.99-1.09l-.87-1.8,3.6-1.74.87,1.8-3.6,1.74Zm-186.74-1h-2v-4h2v4Zm601.52-1.39l-3.6-1.74.87-1.8,3.6,1.74-.87,1.8Zm-407.58-1.09l-.87-1.8,3.6-1.74.87,1.8-3.6,1.74Zm601.26-1h-2v-4h2v4Zm-200.88-1.39l-3.6-1.74.87-1.8,3.6,1.74-.87,1.8Zm-393.17-1.09l-.87-1.8,3.6-1.74.87,1.8-3.6,1.74Zm-201.15-2.04h-2v-4h2v4Zm587.11-.35l-3.6-1.74.87-1.8,3.6,1.74-.87,1.8Zm-378.76-1.09l-.87-1.8,3.6-1.74.87,1.8-3.6,1.74Zm586.85-2.04h-2v-4h2v4Zm-215.29-.35l-3.6-1.74.87-1.8,3.6,1.74-.87,1.8Zm-364.35-1.09l-.87-1.8,1.34-.65.87,1.8-1.34.65Zm-215.55-3.08h-2v-4h2v4Zm795.2-3.48h-2v-4h2v4Zm-795.2-4.52h-2v-4h2v4Zm795.2-3.48h-2v-4h2v4Zm-795.2-4.52h-2v-4h2v4Zm795.2-3.48h-2v-4h2v4Zm-795.2-4.52h-2v-4h2v4Zm795.2-3.48h-2v-4h2v4Zm-795.2-4.52h-2v-4h2v4Zm795.2-3.48h-2v-4h2v4Zm-795.2-4.52h-2v-4h2v4Zm795.2-3.48h-2v-4h2v4Zm-795.2-4.52h-2v-4h2v4Zm795.2-3.48h-2v-4h2v4Zm-795.2-4.52h-2v-4h2v4Zm795.2-3.48h-2v-4h2v4Zm-795.2-4.52h-2v-4h2v4Zm795.2-3.48h-2v-4h2v4Zm-795.2-4.52h-2v-4h2v4Zm795.2-3.48h-2v-4h2v4Zm-795.2-4.52h-2v-4h2v4Zm795.2-3.48h-2v-4h2v4Zm-795.2-4.52h-2v-4h2v4Zm795.2-3.48h-2v-4h2v4Zm-795.2-4.52h-2v-4h2v4Zm795.2-3.48h-2v-4h2v4Zm-795.2-4.52h-2v-4h2v4Zm795.2-3.48h-2v-4h2v4Zm-795.2-4.52h-2v-4h2v4Zm795.2-3.48h-2v-4h2v4Zm-795.2-4.52h-2v-4h2v4Zm795.2-3.48h-2v-4h2v4Zm-795.2-4.52h-2v-4h2v4Zm795.2-3.48h-2v-4h2v4Zm-795.2-4.52h-2v-4h2v4Zm795.2-3.48h-2v-4h2v4Zm-795.2-4.52h-2v-4h2v4Zm795.2-3.48h-2v-4h2v4Zm-795.2-4.52h-2v-4h2v4Zm795.2-3.48h-2v-4h2v4Zm-795.2-4.52h-2v-4h2v4Zm795.2-3.48h-2v-4h2v4Zm-795.2-4.52h-2v-4h2v4Zm795.2-3.48h-2v-4h2v4Zm-218.02-.06l-.87-1.8,1.34-.65.87,1.8-1.34.65Zm-361.15,0l-1.34-.65.87-1.8,1.34.65-.87,1.8Zm366.09-2.39l-.87-1.8,3.6-1.74.87,1.8-3.6,1.74Zm-371.03,0l-3.6-1.74.87-1.8,3.6,1.74-.87,1.8Zm-211.08-2.07h-2v-4h2v4Zm589.32-1.41l-.87-1.8,3.6-1.74.87,1.8-3.6,1.74Zm-385.44,0l-3.6-1.74.87-1.8,3.6,1.74-.87,1.8Zm591.32-2.07h-2v-4h2v4Zm-198.68-1.41l-.87-1.8,3.6-1.74.87,1.8-3.6,1.74Zm-399.85,0l-3.6-1.74.87-1.8,3.6,1.74-.87,1.8Zm-196.68-3.11h-2v-4h2v4Zm603.73-.36l-.87-1.8,3.6-1.74.87,1.8-3.6,1.74Zm-414.26,0l-3.6-1.74.87-1.8,3.6,1.74-.87,1.8Zm605.73-3.11h-2v-4h2v4Zm-184.27-.36l-.87-1.8,3.6-1.74.87,1.8-3.6,1.74Zm-428.66,0l-3.6-1.74.87-1.8,3.6,1.74-.87,1.8Zm435.87-3.48l-.87-1.8,3.6-1.74.87,1.8-3.6,1.74Zm-443.07,0l-3.6-1.74.87-1.8,3.6,1.74-.87,1.8Zm-175.06-.68h-2v-4h2v4Zm625.34-2.8l-.87-1.8,3.6-1.74.87,1.8-3.6,1.74Zm-457.48,0l-3.6-1.74.87-1.8,3.6,1.74-.87,1.8Zm627.34-.68h-2v-4h2v4Zm-162.66-2.8l-.87-1.8,3.6-1.74.87,1.8-3.6,1.74Zm-471.89,0l-3.6-1.74.87-1.8,3.6,1.74-.87,1.8Zm-160.66-1.72h-2v-4h2v4Zm639.75-1.76l-.87-1.8,3.6-1.74.87,1.8-3.6,1.74Zm-486.29,0l-3.6-1.74.87-1.8,3.6,1.74-.87,1.8Zm641.75-1.72h-2v-4h2v4Zm-148.25-1.76l-.87-1.8,3.6-1.74.87,1.8-3.6,1.74Zm-500.7,0l-3.6-1.74.87-1.8,3.6,1.74-.87,1.8Zm-146.25-2.76h-2v-4h2v4Zm654.16-.72l-.87-1.8,3.6-1.74.87,1.8-3.6,1.74Zm-515.11,0l-3.6-1.74.87-1.8,3.6,1.74-.87,1.8Zm656.16-2.76h-2v-4h2v4Zm-133.84-.72l-.87-1.8,3.6-1.74.87,1.8-3.6,1.74Zm-529.52,0l-3.6-1.74.87-1.8,3.6,1.74-.87,1.8Zm536.72-3.48l-.87-1.8,3.6-1.74.87,1.8-3.6,1.74Zm-543.93,0l-3.6-1.74.87-1.8,3.6,1.74-.87,1.8Zm-124.64-.33h-2v-4h2v4Zm675.77-3.15l-.87-1.8,3.6-1.74.87,1.8-3.6,1.74Zm-558.34,0l-3.6-1.74.87-1.8,3.6,1.74-.87,1.8Zm677.77-.33h-2v-4h2v4Zm-112.23-3.15l-.87-1.8,3.6-1.74.87,1.8-3.6,1.74Zm-572.74,0l-3.6-1.74.87-1.8,3.6,1.74-.87,1.8Zm-110.23-1.37h-2v-4h2v4Zm690.18-2.11l-.87-1.8,3.6-1.74.87,1.8-3.6,1.74Zm-587.15,0l-3.6-1.74.87-1.8,3.6,1.74-.87,1.8Zm692.18-1.37h-2v-4h2v4Zm-97.82-2.11l-.87-1.8,3.6-1.74.87,1.8-3.6,1.74Zm-601.56,0l-3.6-1.74.87-1.8,3.6,1.74-.87,1.8Zm-95.82-2.41h-2v-4h2v4Zm704.58-1.07l-.87-1.8,3.6-1.74.87,1.8-3.6,1.74Zm-615.97,0l-3.6-1.74.87-1.8,3.6,1.74-.87,1.8Zm706.58-2.41h-2v-4h2v4Zm-83.41-1.07l-.87-1.8,3.6-1.74.87,1.8-3.6,1.74Zm-630.37,0l-3.6-1.74.87-1.8,3.6,1.74-.87,1.8Zm-81.41-3.45h-2v-4h2v4Zm718.99-.03l-.87-1.8,3.6-1.74.87,1.8-3.6,1.74Zm-644.78,0l-3.6-1.74.87-1.8,3.6,1.74-.87,1.8Zm720.99-3.45h-2v-4h2v4Zm-69-.03l-.87-1.8,3.6-1.74.87,1.8-3.6,1.74Zm-659.19,0l-3.6-1.74.87-1.8,3.6,1.74-.87,1.8Zm666.4-3.48l-.87-1.8,3.6-1.74.87,1.8-3.6,1.74Zm-673.6,0l-3.6-1.74.87-1.8,3.6,1.74-.87,1.8Zm-59.8-1.01l-2-.02c.01-1.36.09-2.73.21-4.08l1.99.19c-.12,1.29-.19,2.61-.21,3.91Zm793.11-2.28c-.08-1.3-.21-2.61-.39-3.89l1.98-.28c.19,1.34.33,2.71.41,4.06l-2,.12Zm-52.51-.19l-.87-1.8,3.6-1.74.87,1.8-3.6,1.74Zm-688.01,0l-3.6-1.74.87-1.8,3.6,1.74-.87,1.8Zm695.21-3.48l-.87-1.8,3.6-1.74.87,1.8-3.6,1.74Zm-702.42,0l-3.6-1.74.87-1.8,3.6,1.74-.87,1.8Zm-44.65-1.84l-1.97-.35c.24-1.34.54-2.68.89-3.99l1.93.52c-.33,1.25-.62,2.54-.85,3.82Zm754.27-1.64l-.87-1.8,3.6-1.74.87,1.8-3.6,1.74Zm-716.82,0l-3.6-1.74.87-1.8,3.6,1.74-.87,1.8Zm753.82-.59c-.29-1.26-.64-2.53-1.04-3.77l1.91-.61c.41,1.3.78,2.62,1.08,3.94l-1.95.45Zm-29.79-2.88l-.87-1.8,3.6-1.74.87,1.8-3.6,1.74Zm-731.23,0l-3.6-1.74.87-1.8,3.6,1.74-.87,1.8Zm-28.23-2.44l-1.88-.68c.46-1.27.97-2.54,1.54-3.78l1.82.83c-.54,1.19-1.04,2.41-1.47,3.63Zm766.66-1.04l-.87-1.8,3.6-1.74.87,1.8-3.6,1.74Zm-745.64,0l-3.6-1.74.87-1.8,3.6,1.74-.87,1.8Zm765.84-1.09c-.5-1.2-1.05-2.4-1.65-3.55l1.78-.92c.62,1.2,1.2,2.45,1.72,3.7l-1.85.77Zm-13-2.39l-.87-1.8,3.6-1.74.87,1.8-3.6,1.74Zm-760.05,0l-3.6-1.74.87-1.8,3.6,1.74-.87,1.8Zm-10.57-2.6l-1.74-.98c.66-1.18,1.38-2.35,2.14-3.47l.19.13.04-.09,3.6,1.74-.87,1.8-2.22-1.07c-.4.64-.79,1.29-1.15,1.94Zm777.83-.87l-.87-1.8,1.98-.96c-.36-.53-.73-1.05-1.11-1.55l1.6-1.2c.81,1.08,1.58,2.21,2.31,3.37l-.38.24.08.16-3.6,1.74Zm7.2-3.48l-.87-1.8,3.6-1.74.87,1.8-3.6,1.74Zm-788.87,0l-3.6-1.74.87-1.8,3.6,1.74-.87,1.8Zm8.21-2.13l-1.56-1.25c.85-1.06,1.75-2.09,2.69-3.07l1.45,1.38c-.9.94-1.76,1.93-2.58,2.95Zm770.97-1.74c-.87-.98-1.78-1.92-2.72-2.82l1.38-1.45c.98.93,1.93,1.92,2.83,2.94l-1.5,1.33Zm-765.58-3.93l-1.33-1.5c1.01-.9,2.08-1.77,3.16-2.58l1.2,1.6c-1.04.78-2.06,1.61-3.03,2.48Zm759.91-1.47c-1.01-.81-2.07-1.6-3.15-2.33l1.12-1.66c1.13.76,2.23,1.58,3.28,2.43l-1.26,1.56Zm-753.66-3.22l-1.06-1.69c1.15-.72,2.34-1.4,3.54-2.02l.92,1.78c-1.16.6-2.3,1.25-3.4,1.94Zm747.17-1.17c-.83-.47-1.69-.92-2.55-1.33l-.95-.46.87-1.8.95.46c.9.43,1.79.9,2.66,1.39l-.98,1.74Zm-740.2-2.52l-.87-1.8,3.6-1.74.87,1.8-3.6,1.74Zm733.1-1.02l-3.6-1.74.87-1.8,3.6,1.74-.87,1.8Zm-725.89-2.47l-.87-1.8,3.6-1.74.87,1.8-3.6,1.74Zm718.69-1.02l-3.6-1.74.87-1.8,3.6,1.74-.87,1.8Zm-711.49-2.47l-.87-1.8,3.6-1.74.87,1.8-3.6,1.74Zm704.29-1.02l-3.6-1.74.87-1.8,3.6,1.74-.87,1.8Zm-697.08-2.47l-.87-1.8,3.6-1.74.87,1.8-3.6,1.74Zm689.88-1.02l-3.6-1.74.87-1.8,3.6,1.74-.87,1.8Zm-682.68-2.47l-.87-1.8,3.6-1.74.87,1.8-3.6,1.74Zm675.47-1.02l-3.6-1.74.87-1.8,3.6,1.74-.87,1.8Zm-668.27-2.47l-.87-1.8,3.6-1.74.87,1.8-3.6,1.74Zm661.07-1.02l-3.6-1.74.87-1.8,3.6,1.74-.87,1.8Zm-653.86-2.47l-.87-1.8,3.6-1.74.87,1.8-3.6,1.74Zm646.66-1.02l-3.6-1.74.87-1.8,3.6,1.74-.87,1.8Zm-639.46-2.47l-.87-1.8,3.6-1.74.87,1.8-3.6,1.74Zm632.25-1.02l-3.6-1.74.87-1.8,3.6,1.74-.87,1.8Zm-625.05-2.47l-.87-1.8,3.6-1.74.87,1.8-3.6,1.74Zm617.85-1.02l-3.6-1.74.87-1.8,3.6,1.74-.87,1.8Zm-610.64-2.47l-.87-1.8,3.6-1.74.87,1.8-3.6,1.74Zm603.44-1.02l-3.6-1.74.87-1.8,3.6,1.74-.87,1.8Zm-596.24-2.47l-.87-1.8,3.6-1.74.87,1.8-3.6,1.74Zm589.04-1.02l-3.6-1.74.87-1.8,3.6,1.74-.87,1.8Zm-581.83-2.47l-.87-1.8,3.6-1.74.87,1.8-3.6,1.74Zm574.63-1.02l-3.6-1.74.87-1.8,3.6,1.74-.87,1.8Zm-567.43-2.47l-.87-1.8,3.6-1.74.87,1.8-3.6,1.74Zm560.22-1.02l-3.6-1.74.87-1.8,3.6,1.74-.87,1.8Zm-553.02-2.47l-.87-1.8,3.6-1.74.87,1.8-3.6,1.74Zm545.82-1.02l-3.6-1.74.87-1.8,3.6,1.74-.87,1.8Zm-538.62-2.47l-.87-1.8,3.6-1.74.87,1.8-3.6,1.74Zm531.41-1.02l-3.6-1.74.87-1.8,3.6,1.74-.87,1.8Zm-524.21-2.47l-.87-1.8,3.6-1.74.87,1.8-3.6,1.74Zm517-1.02l-3.6-1.74.87-1.8,3.6,1.74-.87,1.8Zm-509.8-2.47l-.87-1.8,3.6-1.74.87,1.8-3.6,1.74Zm502.6-1.02l-3.6-1.74.87-1.8,3.6,1.74-.87,1.8Zm-495.4-2.47l-.87-1.8,3.6-1.74.87,1.8-3.6,1.74Zm488.19-1.02l-3.6-1.74.87-1.8,3.6,1.74-.87,1.8Zm-480.99-2.47l-.87-1.8,3.6-1.74.87,1.8-3.6,1.74Zm473.79-1.02l-3.6-1.74.87-1.8,3.6,1.74-.87,1.8Zm-466.58-2.47l-.87-1.8,3.6-1.74.87,1.8-3.6,1.74Zm459.38-1.02l-3.6-1.74.87-1.8,3.6,1.74-.87,1.8Zm-452.18-2.47l-.87-1.8,3.6-1.74.87,1.8-3.6,1.74Zm444.97-1.02l-3.6-1.74.87-1.8,3.6,1.74-.87,1.8Zm-437.77-2.47l-.87-1.8,3.6-1.74.87,1.8-3.6,1.74Zm430.57-1.02l-3.6-1.74.87-1.8,3.6,1.74-.87,1.8Zm-423.37-2.47l-.87-1.8,3.6-1.74.87,1.8-3.6,1.74Zm416.16-1.02l-3.6-1.74.87-1.8,3.6,1.74-.87,1.8Zm-408.96-2.47l-.87-1.8,3.6-1.74.87,1.8-3.6,1.74Zm401.76-1.02l-3.6-1.74.87-1.8,3.6,1.74-.87,1.8Zm-394.55-2.47l-.87-1.8,3.6-1.74.87,1.8-3.6,1.74Zm387.35-1.02l-3.6-1.74.87-1.8,3.6,1.74-.87,1.8Zm-380.15-2.47l-.87-1.8,3.6-1.74.87,1.8-3.6,1.74Zm372.95-1.02l-3.6-1.74.87-1.8,3.6,1.74-.87,1.8Zm-365.74-2.47l-.87-1.8,3.6-1.74.87,1.8-3.6,1.74Zm358.54-1.02l-3.6-1.74.87-1.8,3.6,1.74-.87,1.8Zm-351.34-2.47l-.87-1.8,3.6-1.74.87,1.8-3.6,1.74Zm344.13-1.02l-3.6-1.74.87-1.8,3.6,1.74-.87,1.8Zm-336.93-2.47l-.87-1.8,3.6-1.74.87,1.8-3.6,1.74Zm329.73-1.02l-3.6-1.74.87-1.8,3.6,1.74-.87,1.8Zm-322.52-2.47l-.87-1.8,3.6-1.74.87,1.8-3.6,1.74Zm315.32-1.02l-3.6-1.74.87-1.8,3.6,1.74-.87,1.8Zm-308.12-2.47l-.87-1.8,3.6-1.74.87,1.8-3.6,1.74Zm300.91-1.02l-3.6-1.74.87-1.8,3.6,1.74-.87,1.8Zm-293.71-2.47l-.87-1.8,3.6-1.74.87,1.8-3.6,1.74Zm286.51-1.02l-3.6-1.74.87-1.8,3.6,1.74-.87,1.8Zm-279.3-2.47l-.87-1.8,3.6-1.74.87,1.8-3.6,1.74Zm272.1-1.02l-3.6-1.74.87-1.8,3.6,1.74-.87,1.8Zm-264.9-2.47l-.87-1.8,3.6-1.74.87,1.8-3.6,1.74Zm257.7-1.02l-3.6-1.74.87-1.8,3.6,1.74-.87,1.8Zm-250.49-2.47l-.87-1.8,3.6-1.74.87,1.8-3.6,1.74Zm243.29-1.02l-3.6-1.74.87-1.8,3.6,1.74-.87,1.8Zm-236.09-2.47l-.87-1.8,3.6-1.74.87,1.8-3.6,1.74Zm228.88-1.02l-3.6-1.74.87-1.8,3.6,1.74-.87,1.8Zm-221.68-2.47l-.87-1.8,3.6-1.74.87,1.8-3.6,1.74Zm214.48-1.02l-3.6-1.74.87-1.8,3.6,1.74-.87,1.8Zm-207.27-2.47l-.87-1.8,3.6-1.74.87,1.8-3.6,1.74Zm200.07-1.02l-3.6-1.74.87-1.8,3.6,1.74-.87,1.8Zm-192.87-2.47l-.87-1.8,3.6-1.74.87,1.8-3.6,1.74Zm185.67-1.02l-3.6-1.74.87-1.8,3.6,1.74-.87,1.8Zm-178.46-2.47l-.87-1.8,3.6-1.74.87,1.8-3.6,1.74Zm171.26-1.02l-3.6-1.74.87-1.8,3.6,1.74-.87,1.8Zm-164.06-2.47l-.87-1.8,3.6-1.74.87,1.8-3.6,1.74Zm156.85-1.02l-3.6-1.74.87-1.8,3.6,1.74-.87,1.8Zm-149.65-2.47l-.87-1.8,3.6-1.74.87,1.8-3.6,1.74Zm142.45-1.02l-3.6-1.74.87-1.8,3.6,1.74-.87,1.8Zm-135.25-2.47l-.87-1.8,3.6-1.74.87,1.8-3.6,1.74Zm128.04-1.02l-3.6-1.74.87-1.8,3.6,1.74-.87,1.8Zm-120.84-2.47l-.87-1.8,3.6-1.74.87,1.8-3.6,1.74Zm113.64-1.02l-3.6-1.74.87-1.8,3.6,1.74-.87,1.8Zm-106.43-2.47l-.87-1.8,3.6-1.74.87,1.8-3.6,1.74Zm99.23-1.02l-3.6-1.74.87-1.8,3.6,1.74-.87,1.8Zm-92.03-2.47l-.87-1.8,3.6-1.74.87,1.8-3.6,1.74Zm84.82-1.02l-3.6-1.74.87-1.8,3.6,1.74-.87,1.8Zm-77.62-2.47l-.87-1.8,3.6-1.74.87,1.8-3.6,1.74Zm70.42-1.02l-3.6-1.74.87-1.8,3.6,1.74-.87,1.8Zm-63.21-2.47l-.87-1.8,3.6-1.74.87,1.8-3.6,1.74Zm56.01-1.02l-3.6-1.74.87-1.8,3.6,1.74-.87,1.8Zm-48.81-2.47l-.87-1.8,1.4-.68c.75-.36,1.51-.7,2.27-1.03l.78,1.84c-.73.31-1.46.64-2.18.98l-1.41.68Zm41.62-1c-1.18-.55-2.4-1.05-3.62-1.5l.69-1.88c1.27.47,2.54.99,3.77,1.56l-.84,1.81Zm-34.37-2.03l-.62-1.9c1.29-.42,2.62-.79,3.93-1.11l.46,1.95c-1.26.3-2.53.66-3.77,1.06Zm27.02-.66c-1.26-.34-2.54-.64-3.81-.88l.37-1.97c1.33.25,2.67.55,3.98.91l-.53,1.93Zm-19.41-1.15l-.3-1.98c1.34-.2,2.7-.35,4.06-.44l.13,2c-1.3.09-2.61.23-3.89.42Zm11.72-.28c-1.29-.13-2.61-.21-3.91-.23l.04-2c1.36.02,2.73.1,4.08.24l-.2,1.99Z" style="fill: #888; stroke-width: 0px;"/>
  <circle cx="112.83" cy="254.97" r="102.4" style="fill: #fff; stroke: #333; stroke-miterlimit: 10; stroke-width: 2px;"/>
  <circle cx="908.03" cy="254.97" r="102.4" style="fill: #fff; stroke: #333; stroke-miterlimit: 10; stroke-width: 2px;"/>
  <circle cx="112.83" cy="638.97" r="102.4" style="fill: #fff; stroke: #333; stroke-miterlimit: 10; stroke-width: 2px;"/>
  <circle cx="908.03" cy="638.97" r="102.4" style="fill: #fff; stroke: #333; stroke-miterlimit: 10; stroke-width: 2px;"/>
  <circle cx="510.43" cy="446.97" r="200" style="fill: #fff; stroke: #333; stroke-miterlimit: 10; stroke-width: 3px;"/>
  <circle cx="112.83" cy="254.97" r="81.92" style="fill: #f2f2f2; stroke-width: 0px;"/>
  <circle cx="510.43" cy="446.97" r="160" style="fill: #f2f2f2; stroke-width: 0px;"/>
  <circle cx="908.03" cy="254.97" r="81.92" style="fill: #f2f2f2; stroke-width: 0px;"/>
  <circle cx="112.83" cy="638.97" r="81.92" style="fill: #f2f2f2; stroke-width: 0px;"/>
  <circle cx="908.03" cy="638.97" r="81.92" style="fill: #f2f2f2; stroke-width: 0px;"/>
  <rect x="215.23" y="943.97" width="590.4" height="180" rx="90" ry="90" style="fill: #fff; stroke: #333; stroke-miterlimit: 10; stroke-width: 3px;"/>
  <rect x="236.48" y="961.97" width="547.91" height="144" rx="72" ry="72" style="fill: #cce7f6; stroke-width: 0px;"/>
  <g>
    <line x1="510.43" y1="646.97" x2="510.43" y2="922.45" style="fill: none; stroke: #333; stroke-linecap: round; stroke-linejoin: round; stroke-width: 3px;"/>
    <polygon points="495.47 918.07 510.43 943.97 525.39 918.07 495.47 918.07" style="fill: #333; stroke-width: 0px;"/>
  </g>
  <g>
    <path d="m83.92,242.5l-2.05,2.38c-1.66-1.37-3.28-1.98-5.15-1.98-4.07,0-7.45,2.74-7.45,10.8s3.24,10.8,7.42,10.8c2.52,0,4.18-1.12,5.69-2.23l1.84,2.34c-1.48,1.51-4.03,2.99-7.67,2.99-6.48,0-11.19-4.86-11.19-13.89s5.08-13.82,11.12-13.82c3.38,0,5.29.94,7.45,2.63Z" style="fill: #333; stroke-width: 0px;"/>
    <path d="m101.13,260.39h-10.15l-2.02,6.73h-3.74l8.6-26.78h4.68l8.53,26.78h-3.89l-2.02-6.73Zm-.9-2.99l-4.14-14-4.21,14h8.35Z" style="fill: #333; stroke-width: 0px;"/>
    <path d="m128.63,248.62c0,6.15-4.46,8.67-10.37,8.67h-3.38v9.83h-3.71v-26.78h7.02c6.48,0,10.44,2.63,10.44,8.28Zm-3.92.04c0-4-2.56-5.44-6.55-5.44h-3.28v11.16h3.2c3.96,0,6.62-1.19,6.62-5.72Z" style="fill: #333; stroke-width: 0px;"/>
    <path d="m156.28,260.39h-10.15l-2.02,6.73h-3.74l8.6-26.78h4.68l8.53,26.78h-3.89l-2.02-6.73Zm-.9-2.99l-4.14-14-4.21,14h8.35Z" style="fill: #333; stroke-width: 0px;"/>
  </g>
  <g>
    <path d="m878.44,242.5l-2.05,2.38c-1.66-1.37-3.28-1.98-5.15-1.98-4.07,0-7.45,2.74-7.45,10.8s3.24,10.8,7.42,10.8c2.52,0,4.18-1.12,5.69-2.23l1.84,2.34c-1.48,1.51-4.03,2.99-7.67,2.99-6.48,0-11.2-4.86-11.2-13.89s5.08-13.82,11.12-13.82c3.38,0,5.29.94,7.45,2.63Z" style="fill: #333; stroke-width: 0px;"/>
    <path d="m895.65,260.39h-10.15l-2.02,6.73h-3.74l8.6-26.78h4.68l8.53,26.78h-3.89l-2.02-6.73Zm-.9-2.99l-4.14-14-4.21,14h8.35Z" style="fill: #333; stroke-width: 0px;"/>
    <path d="m923.15,248.62c0,6.15-4.46,8.67-10.37,8.67h-3.38v9.83h-3.71v-26.78h7.02c6.48,0,10.44,2.63,10.44,8.28Zm-3.92.04c0-4-2.56-5.44-6.55-5.44h-3.28v11.16h3.2c3.96,0,6.62-1.19,6.62-5.72Z" style="fill: #333; stroke-width: 0px;"/>
    <path d="m956.56,259.49c0,5.69-4.39,7.63-10.62,7.63h-7.38v-26.78h6.33c6.62,0,10.51,2.09,10.51,6.77,0,3.31-2.41,5.33-5.04,5.87,3.13.54,6.19,1.98,6.19,6.52Zm-14.29-16.23v8.42h4.03c2.99,0,5.33-1.48,5.33-4.32,0-3.28-2.38-4.1-6.33-4.1h-3.02Zm10.4,16.23c0-3.74-2.81-4.97-6.01-4.97h-4.39v9.65h3.67c3.89,0,6.73-.79,6.73-4.68Z" style="fill: #333; stroke-width: 0px;"/>
  </g>
  <g>
    <path d="m84.17,626.5l-2.05,2.38c-1.66-1.37-3.28-1.98-5.15-1.98-4.07,0-7.45,2.74-7.45,10.8s3.24,10.8,7.42,10.8c2.52,0,4.18-1.12,5.69-2.23l1.84,2.34c-1.48,1.51-4.03,2.99-7.67,2.99-6.48,0-11.19-4.86-11.19-13.89s5.08-13.82,11.12-13.82c3.38,0,5.29.94,7.45,2.63Z" style="fill: #333; stroke-width: 0px;"/>
    <path d="m101.38,644.39h-10.15l-2.02,6.73h-3.74l8.6-26.78h4.68l8.53,26.78h-3.89l-2.02-6.73Zm-.9-2.99l-4.14-14-4.21,14h8.35Z" style="fill: #333; stroke-width: 0px;"/>
    <path d="m128.89,632.62c0,6.16-4.46,8.67-10.37,8.67h-3.38v9.83h-3.71v-26.78h7.02c6.48,0,10.44,2.63,10.44,8.28Zm-3.92.04c0-4-2.56-5.44-6.55-5.44h-3.28v11.16h3.2c3.96,0,6.62-1.19,6.62-5.72Z" style="fill: #333; stroke-width: 0px;"/>
    <path d="m161.1,626.5l-2.05,2.38c-1.66-1.37-3.28-1.98-5.15-1.98-4.07,0-7.45,2.74-7.45,10.8s3.24,10.8,7.42,10.8c2.52,0,4.18-1.12,5.69-2.23l1.84,2.34c-1.48,1.51-4.03,2.99-7.67,2.99-6.48,0-11.19-4.86-11.19-13.89s5.08-13.82,11.12-13.82c3.38,0,5.29.94,7.45,2.63Z" style="fill: #333; stroke-width: 0px;"/>
  </g>
  <g>
    <path d="m877.74,626.5l-2.05,2.38c-1.66-1.37-3.28-1.98-5.15-1.98-4.07,0-7.45,2.74-7.45,10.8s3.24,10.8,7.42,10.8c2.52,0,4.18-1.12,5.69-2.23l1.84,2.34c-1.48,1.51-4.03,2.99-7.67,2.99-6.48,0-11.2-4.86-11.2-13.89s5.08-13.82,11.12-13.82c3.38,0,5.29.94,7.45,2.63Z" style="fill: #333; stroke-width: 0px;"/>
    <path d="m894.94,644.39h-10.15l-2.02,6.73h-3.74l8.6-26.78h4.68l8.53,26.78h-3.89l-2.02-6.73Zm-.9-2.99l-4.14-14-4.21,14h8.35Z" style="fill: #333; stroke-width: 0px;"/>
    <path d="m922.45,632.62c0,6.16-4.46,8.67-10.37,8.67h-3.38v9.83h-3.71v-26.78h7.02c6.48,0,10.44,2.63,10.44,8.28Zm-3.92.04c0-4-2.56-5.44-6.55-5.44h-3.28v11.16h3.2c3.96,0,6.62-1.19,6.62-5.72Z" style="fill: #333; stroke-width: 0px;"/>
    <path d="m956.86,637.59c0,10.94-6.8,13.53-12.6,13.53h-6.41v-26.78h5.62c6.84,0,13.39,2.12,13.39,13.25Zm-15.3-10.29v20.91h2.99c4.18,0,8.39-1.8,8.39-10.62s-4.39-10.29-8.67-10.29h-2.7Z" style="fill: #333; stroke-width: 0px;"/>
  </g>
  <g>
    <path d="m425.61,399.77h7.77c5.01,0,8.73.62,11.17,1.86,2.44,1.24,4.44,3.26,6.02,6.06,1.58,2.8,2.37,6.06,2.37,9.8,0,2.66-.44,5.1-1.32,7.32s-2.1,4.07-3.65,5.54c-1.55,1.47-3.24,2.48-5.05,3.05s-4.95.84-9.41.84h-7.89v-34.48Zm6.52,6.33v21.75h3.05c3,0,5.18-.34,6.53-1.03s2.46-1.85,3.32-3.47c.86-1.63,1.29-3.63,1.29-6.01,0-3.66-1.02-6.5-3.07-8.52-1.84-1.81-4.8-2.72-8.88-2.72h-2.23Z" style="fill: #333; stroke-width: 0px;"/>
    <path d="m458.73,399.77h6.52v34.48h-6.52v-34.48Z" style="fill: #333; stroke-width: 0px;"/>
    <path d="m504.46,405.4l-4.62,4.57c-2.92-3.09-6.33-4.64-10.23-4.64-3.39,0-6.24,1.12-8.53,3.38s-3.44,4.98-3.44,8.2,1.19,6.15,3.57,8.46c2.38,2.31,5.31,3.47,8.8,3.47,2.27,0,4.18-.48,5.74-1.43,1.56-.95,2.81-2.45,3.77-4.48h-9.98v-6.16h17.34l.05,1.45c0,3.02-.78,5.88-2.34,8.58s-3.59,4.77-6.07,6.19-5.4,2.13-8.74,2.13c-3.58,0-6.77-.78-9.57-2.33s-5.02-3.77-6.66-6.64-2.45-5.98-2.45-9.3c0-4.56,1.51-8.53,4.52-11.91,3.58-4.02,8.23-6.02,13.97-6.02,3,0,5.8.55,8.41,1.66,2.2.94,4.36,2.55,6.47,4.83Z" style="fill: #333; stroke-width: 0px;"/>
    <path d="m512.47,399.77h6.52v34.48h-6.52v-34.48Z" style="fill: #333; stroke-width: 0px;"/>
    <path d="m522.97,399.77h19.05v6.47h-6.28v28.01h-6.66v-28.01h-6.12v-6.47Z" style="fill: #333; stroke-width: 0px;"/>
    <path d="m557.04,399.77h6.66l13.26,34.48h-6.82l-2.7-7.1h-14.07l-2.8,7.1h-6.82l13.29-34.48Zm3.37,9.14l-4.63,11.84h9.22l-4.6-11.84Z" style="fill: #333; stroke-width: 0px;"/>
    <path d="m582.03,399.77h6.56v28.22h9.56v6.26h-16.12v-34.48Z" style="fill: #333; stroke-width: 0px;"/>
    <path d="m382.84,457.37h6.96c3.77,0,6.48.35,8.14,1.04s2.98,1.82,3.94,3.38,1.44,3.42,1.44,5.59c0,2.41-.63,4.41-1.89,6s-2.96,2.7-5.12,3.33c-1.27.36-3.57.54-6.91.54v14.6h-6.56v-34.48Zm6.56,13.48h2.09c1.64,0,2.78-.12,3.42-.35s1.14-.62,1.51-1.16.55-1.2.55-1.96c0-1.33-.52-2.3-1.55-2.92-.75-.45-2.14-.68-4.17-.68h-1.85v7.08Z" style="fill: #333; stroke-width: 0px;"/>
    <path d="m409.74,457.37h6.56v28.22h9.56v6.26h-16.12v-34.48Z" style="fill: #333; stroke-width: 0px;"/>
    <path d="m441.38,457.37h6.66l13.26,34.48h-6.82l-2.7-7.1h-14.07l-2.8,7.1h-6.82l13.3-34.48Zm3.37,9.14l-4.63,11.84h9.22l-4.6-11.84Z" style="fill: #333; stroke-width: 0px;"/>
    <path d="m462.97,457.37h19.05v6.47h-6.28v28.01h-6.66v-28.01h-6.12v-6.47Z" style="fill: #333; stroke-width: 0px;"/>
    <path d="m486.62,457.37h17.11v6.4h-10.59v6.26h10.59v6.3h-10.59v15.52h-6.52v-34.48Z" style="fill: #333; stroke-width: 0px;"/>
    <path d="m525.84,456.5c4.88,0,9.07,1.77,12.58,5.3s5.27,7.84,5.27,12.91-1.73,9.29-5.2,12.77-7.67,5.23-12.61,5.23-9.48-1.79-12.9-5.37c-3.42-3.58-5.14-7.83-5.14-12.75,0-3.3.8-6.33,2.39-9.09s3.79-4.96,6.58-6.57c2.79-1.62,5.8-2.43,9.02-2.43Zm-.07,6.42c-3.19,0-5.87,1.11-8.05,3.33s-3.26,5.04-3.26,8.46c0,3.81,1.37,6.83,4.11,9.05,2.13,1.73,4.57,2.6,7.32,2.6,3.11,0,5.76-1.12,7.95-3.38,2.19-2.25,3.29-5.02,3.29-8.32s-1.1-6.06-3.31-8.33-4.89-3.41-8.05-3.41Z" style="fill: #333; stroke-width: 0px;"/>
    <path d="m550.32,457.37h6.95c3.81,0,6.52.34,8.13,1.02s2.91,1.81,3.9,3.39,1.48,3.45,1.48,5.6c0,2.27-.54,4.16-1.63,5.68s-2.72,2.68-4.91,3.46l8.17,15.33h-7.17l-7.75-14.6h-.6v14.6h-6.56v-34.48Zm6.56,13.48h2.06c2.09,0,3.52-.27,4.31-.82.79-.55,1.18-1.46,1.18-2.73,0-.75-.2-1.41-.58-1.96-.39-.56-.91-.96-1.57-1.2-.65-.24-1.85-.37-3.6-.37h-1.8v7.08Z" style="fill: #333; stroke-width: 0px;"/>
    <path d="m581.06,457.37h6.39l7.99,24.05,8.06-24.05h6.39l5.78,34.48h-6.35l-3.7-21.77-7.32,21.77h-5.78l-7.26-21.77-3.79,21.77h-6.4l5.97-34.48Z" style="fill: #333; stroke-width: 0px;"/>
    <path d="m639.01,462.06l-4.86,4.29c-1.71-2.38-3.44-3.56-5.21-3.56-.86,0-1.57.23-2.11.69s-.82.98-.82,1.56.2,1.12.59,1.64c.53.69,2.14,2.16,4.81,4.43,2.5,2.09,4.02,3.41,4.56,3.96,1.33,1.34,2.27,2.63,2.83,3.86s.83,2.57.83,4.02c0,2.83-.98,5.16-2.93,7.01-1.96,1.84-4.5,2.77-7.65,2.77-2.46,0-4.59-.6-6.42-1.8s-3.38-3.09-4.68-5.67l5.52-3.33c1.66,3.05,3.57,4.57,5.73,4.57,1.13,0,2.07-.33,2.84-.98s1.15-1.41,1.15-2.27c0-.78-.29-1.56-.87-2.34s-1.85-1.98-3.83-3.59c-3.76-3.06-6.18-5.43-7.28-7.09s-1.64-3.32-1.64-4.98c0-2.39.91-4.44,2.73-6.15s4.07-2.57,6.75-2.57c1.72,0,3.36.4,4.92,1.2,1.56.8,3.24,2.25,5.06,4.36Z" style="fill: #333; stroke-width: 0px;"/>
  </g>
  <g>
    <path d="m322.87,1005.01l-3.65,3.22c-1.28-1.78-2.58-2.67-3.91-2.67-.65,0-1.17.17-1.58.52-.41.35-.62.74-.62,1.17s.15.84.44,1.23c.4.52,1.6,1.62,3.61,3.32,1.88,1.57,3.02,2.56,3.42,2.97,1,1.01,1.71,1.97,2.12,2.89.42.92.62,1.92.62,3.01,0,2.12-.73,3.87-2.2,5.26s-3.38,2.07-5.74,2.07c-1.84,0-3.45-.45-4.81-1.35s-2.54-2.32-3.51-4.25l4.14-2.5c1.24,2.29,2.68,3.43,4.3,3.43.85,0,1.56-.25,2.13-.74s.86-1.06.86-1.71c0-.59-.22-1.17-.65-1.76-.43-.59-1.39-1.48-2.87-2.69-2.82-2.3-4.64-4.07-5.46-5.32s-1.23-2.49-1.23-3.74c0-1.79.68-3.33,2.05-4.61s3.05-1.92,5.06-1.92c1.29,0,2.52.3,3.69.9,1.17.6,2.43,1.69,3.79,3.27Z" style="fill: #333; stroke-width: 0px;"/>
    <path d="m330.52,1001.5h4.8l5.99,18.04,6.05-18.04h4.79l4.34,25.86h-4.76l-2.77-16.33-5.49,16.33h-4.34l-5.44-16.33-2.84,16.33h-4.8l4.48-25.86Z" style="fill: #333; stroke-width: 0px;"/>
    <path d="m368.3,1001.5h4.99l9.95,25.86h-5.12l-2.02-5.33h-10.55l-2.1,5.33h-5.12l9.97-25.86Zm2.53,6.86l-3.47,8.88h6.92l-3.45-8.88Z" style="fill: #333; stroke-width: 0px;"/>
    <path d="m387.38,1001.5h5.21c2.86,0,4.89.25,6.1.76s2.19,1.36,2.92,2.54c.74,1.18,1.11,2.58,1.11,4.2,0,1.7-.41,3.12-1.22,4.26s-2.04,2.01-3.68,2.59l6.13,11.5h-5.38l-5.81-10.95h-.45v10.95h-4.92v-25.86Zm4.92,10.11h1.54c1.57,0,2.64-.21,3.23-.62.59-.41.88-1.09.88-2.05,0-.56-.15-1.05-.44-1.47-.29-.42-.68-.72-1.17-.9-.49-.18-1.39-.27-2.7-.27h-1.35v5.31Z" style="fill: #333; stroke-width: 0px;"/>
    <path d="m405.38,1001.5h14.29v4.85h-4.71v21.01h-4.99v-21.01h-4.59v-4.85Z" style="fill: #333; stroke-width: 0px;"/>
    <path d="m456.88,1006.04l-3.44,3.28c-2.34-2.47-4.98-3.71-7.9-3.71-2.47,0-4.55.84-6.24,2.53-1.69,1.69-2.54,3.77-2.54,6.25,0,1.72.37,3.26,1.12,4.59.75,1.34,1.81,2.39,3.18,3.15s2.89,1.14,4.57,1.14c1.43,0,2.73-.27,3.92-.8,1.18-.53,2.48-1.5,3.9-2.91l3.34,3.48c-1.91,1.86-3.71,3.16-5.41,3.88s-3.64,1.08-5.82,1.08c-4.02,0-7.31-1.27-9.87-3.82s-3.84-5.82-3.84-9.8c0-2.58.58-4.87,1.75-6.87s2.84-3.62,5.01-4.83,4.51-1.83,7.02-1.83c2.13,0,4.19.45,6.16,1.35,1.97.9,3.68,2.18,5.11,3.84Z" style="fill: #333; stroke-width: 0px;"/>
    <path d="m473.4,1000.85c3.66,0,6.8,1.32,9.44,3.97,2.63,2.65,3.95,5.88,3.95,9.69s-1.3,6.97-3.9,9.58c-2.6,2.61-5.75,3.92-9.45,3.92s-7.11-1.34-9.67-4.03-3.85-5.87-3.85-9.56c0-2.47.6-4.75,1.79-6.82,1.2-2.07,2.84-3.72,4.93-4.93,2.09-1.21,4.35-1.82,6.76-1.82Zm-.05,4.82c-2.39,0-4.41.83-6.04,2.5s-2.45,3.78-2.45,6.35c0,2.86,1.03,5.12,3.08,6.79,1.6,1.3,3.43,1.95,5.49,1.95,2.33,0,4.32-.84,5.96-2.53,1.64-1.69,2.46-3.77,2.46-6.24s-.83-4.54-2.48-6.25c-1.65-1.71-3.67-2.56-6.04-2.56Z" style="fill: #333; stroke-width: 0px;"/>
    <path d="m491.42,1001.5h4.92v21.16h7.17v4.69h-12.09v-25.86Z" style="fill: #333; stroke-width: 0px;"/>
    <path d="m507.26,1001.5h4.92v21.16h7.17v4.69h-12.09v-25.86Z" style="fill: #333; stroke-width: 0px;"/>
    <path d="m530.99,1001.5h4.99l9.95,25.86h-5.12l-2.02-5.33h-10.55l-2.1,5.33h-5.12l9.97-25.86Zm2.53,6.86l-3.47,8.88h6.92l-3.45-8.88Z" style="fill: #333; stroke-width: 0px;"/>
    <path d="m549.73,1027.36v-25.86h4.07c2.36,0,4.08.15,5.17.46,1.55.41,2.78,1.17,3.7,2.29s1.37,2.43,1.37,3.94c0,.98-.21,1.88-.62,2.68s-1.09,1.56-2.03,2.26c1.57.74,2.72,1.66,3.45,2.77s1.09,2.42,1.09,3.93-.38,2.78-1.13,3.97-1.72,2.09-2.9,2.68c-1.18.59-2.82.89-4.91.89h-7.25Zm4.92-21.16v5.45h1.08c1.2,0,2.09-.25,2.67-.76.58-.5.87-1.19.87-2.06,0-.81-.28-1.45-.83-1.92-.55-.47-1.39-.71-2.52-.71h-1.27Zm0,9.84v6.63h1.23c2.04,0,3.42-.26,4.13-.77s1.07-1.27,1.07-2.25c0-1.11-.42-1.99-1.25-2.64-.83-.64-2.22-.97-4.16-.97h-1.02Z" style="fill: #333; stroke-width: 0px;"/>
    <path d="m582.82,1000.85c3.66,0,6.8,1.32,9.44,3.97s3.95,5.88,3.95,9.69-1.3,6.97-3.9,9.58-5.75,3.92-9.45,3.92-7.11-1.34-9.67-4.03c-2.57-2.68-3.85-5.87-3.85-9.56,0-2.47.6-4.75,1.79-6.82s2.84-3.72,4.93-4.93,4.35-1.82,6.76-1.82Zm-.05,4.82c-2.39,0-4.41.83-6.04,2.5-1.63,1.66-2.45,3.78-2.45,6.35,0,2.86,1.03,5.12,3.08,6.79,1.6,1.3,3.43,1.95,5.49,1.95,2.33,0,4.32-.84,5.96-2.53s2.46-3.77,2.46-6.24-.83-4.54-2.48-6.25-3.67-2.56-6.04-2.56Z" style="fill: #333; stroke-width: 0px;"/>
    <path d="m601.18,1001.5h5.21c2.86,0,4.89.25,6.1.76,1.21.51,2.19,1.36,2.92,2.54s1.11,2.58,1.11,4.2c0,1.7-.41,3.12-1.22,4.26s-2.04,2.01-3.68,2.59l6.13,11.5h-5.38l-5.81-10.95h-.45v10.95h-4.92v-25.86Zm4.92,10.11h1.54c1.57,0,2.64-.21,3.23-.62.59-.41.88-1.09.88-2.05,0-.56-.15-1.05-.44-1.47-.29-.42-.68-.72-1.17-.9-.49-.18-1.39-.27-2.7-.27h-1.35v5.31Z" style="fill: #333; stroke-width: 0px;"/>
    <path d="m629.62,1001.5h4.99l9.95,25.86h-5.12l-2.02-5.33h-10.55l-2.1,5.33h-5.12l9.97-25.86Zm2.53,6.86l-3.47,8.88h6.92l-3.45-8.88Z" style="fill: #333; stroke-width: 0px;"/>
    <path d="m645.81,1001.5h14.29v4.85h-4.71v21.01h-4.99v-21.01h-4.59v-4.85Z" style="fill: #333; stroke-width: 0px;"/>
    <path d="m663.13,1001.5h4.89v25.86h-4.89v-25.86Z" style="fill: #333; stroke-width: 0px;"/>
    <path d="m671.59,1001.5h5.06l6.51,18.37,6.6-18.37h5.05l-9.32,25.86h-4.75l-9.16-25.86Z" style="fill: #333; stroke-width: 0px;"/>
    <path d="m698.77,1001.5h14.12v4.82h-9.23v4.68h9.23v4.73h-9.23v6.8h9.23v4.83h-14.12v-25.86Z" style="fill: #333; stroke-width: 0px;"/>
    <path d="m385.98,1049.24l-3.44,3.28c-2.34-2.47-4.98-3.71-7.9-3.71-2.47,0-4.55.84-6.24,2.53-1.69,1.69-2.54,3.77-2.54,6.25,0,1.72.37,3.26,1.12,4.59.75,1.34,1.81,2.39,3.18,3.15s2.89,1.14,4.57,1.14c1.43,0,2.73-.27,3.92-.8,1.18-.53,2.48-1.5,3.9-2.91l3.34,3.48c-1.91,1.86-3.71,3.16-5.41,3.88s-3.64,1.08-5.82,1.08c-4.02,0-7.31-1.27-9.87-3.82s-3.84-5.82-3.84-9.8c0-2.58.58-4.87,1.75-6.87s2.84-3.62,5.01-4.83,4.51-1.83,7.02-1.83c2.13,0,4.19.45,6.16,1.35,1.97.9,3.68,2.18,5.11,3.84Z" style="fill: #333; stroke-width: 0px;"/>
    <path d="m398.17,1044.7h4.99l9.95,25.86h-5.12l-2.02-5.33h-10.55l-2.1,5.33h-5.12l9.97-25.86Zm2.53,6.86l-3.47,8.88h6.92l-3.45-8.88Z" style="fill: #333; stroke-width: 0px;"/>
    <path d="m416.9,1044.7h5.22c2.82,0,4.86.26,6.11.78s2.23,1.37,2.95,2.53,1.08,2.56,1.08,4.19c0,1.8-.47,3.3-1.42,4.5s-2.22,2.03-3.84,2.5c-.95.27-2.68.4-5.19.4v10.95h-4.92v-25.86Zm4.92,10.11h1.56c1.23,0,2.09-.09,2.57-.26.48-.18.86-.47,1.13-.87.28-.41.41-.9.41-1.47,0-1-.39-1.73-1.16-2.19-.56-.34-1.61-.51-3.13-.51h-1.39v5.31Z" style="fill: #333; stroke-width: 0px;"/>
    <path d="m444.97,1044.7h4.99l9.95,25.86h-5.12l-2.02-5.33h-10.55l-2.1,5.33h-5.12l9.97-25.86Zm2.53,6.86l-3.47,8.88h6.92l-3.45-8.88Z" style="fill: #333; stroke-width: 0px;"/>
    <path d="m487.48,1049.24l-3.44,3.28c-2.34-2.47-4.98-3.71-7.9-3.71-2.47,0-4.55.84-6.24,2.53-1.69,1.69-2.54,3.77-2.54,6.25,0,1.72.37,3.26,1.12,4.59.75,1.34,1.81,2.39,3.18,3.15s2.89,1.14,4.57,1.14c1.43,0,2.73-.27,3.92-.8,1.18-.53,2.48-1.5,3.9-2.91l3.34,3.48c-1.91,1.86-3.71,3.16-5.41,3.88s-3.64,1.08-5.82,1.08c-4.02,0-7.31-1.27-9.87-3.82s-3.84-5.82-3.84-9.8c0-2.58.58-4.87,1.75-6.87s2.84-3.62,5.01-4.83,4.51-1.83,7.02-1.83c2.13,0,4.19.45,6.16,1.35,1.97.9,3.68,2.18,5.11,3.84Z" style="fill: #333; stroke-width: 0px;"/>
    <path d="m491.43,1044.7h4.89v25.86h-4.89v-25.86Z" style="fill: #333; stroke-width: 0px;"/>
    <path d="m499.31,1044.7h14.29v4.85h-4.71v21.01h-4.99v-21.01h-4.59v-4.85Z" style="fill: #333; stroke-width: 0px;"/>
    <path d="m515.14,1044.7h5.28l4.82,9.3,4.8-9.3h5.22l-7.57,14.66v11.2h-4.96v-11.2l-7.6-14.66Z" style="fill: #333; stroke-width: 0px;"/>
    <path d="m549.35,1044.7h5.22c2.82,0,4.86.26,6.11.78s2.23,1.37,2.95,2.53,1.08,2.56,1.08,4.19c0,1.8-.47,3.3-1.42,4.5s-2.22,2.03-3.84,2.5c-.95.27-2.68.4-5.19.4v10.95h-4.92v-25.86Zm4.92,10.11h1.56c1.23,0,2.09-.09,2.57-.26.48-.18.86-.47,1.13-.87.28-.41.41-.9.41-1.47,0-1-.39-1.73-1.16-2.19-.56-.34-1.61-.51-3.13-.51h-1.39v5.31Z" style="fill: #333; stroke-width: 0px;"/>
    <path d="m581.74,1044.05c3.66,0,6.8,1.32,9.44,3.97s3.95,5.88,3.95,9.69-1.3,6.97-3.9,9.58-5.75,3.92-9.45,3.92-7.11-1.34-9.67-4.03c-2.57-2.68-3.85-5.87-3.85-9.56,0-2.47.6-4.75,1.79-6.82s2.84-3.72,4.93-4.93,4.35-1.82,6.76-1.82Zm-.05,4.82c-2.39,0-4.41.83-6.04,2.5-1.63,1.66-2.45,3.78-2.45,6.35,0,2.86,1.03,5.12,3.08,6.79,1.6,1.3,3.43,1.95,5.49,1.95,2.33,0,4.32-.84,5.96-2.53s2.46-3.77,2.46-6.24-.83-4.54-2.48-6.25-3.67-2.56-6.04-2.56Z" style="fill: #333; stroke-width: 0px;"/>
    <path d="m611.97,1044.05c3.66,0,6.8,1.32,9.44,3.97s3.95,5.88,3.95,9.69-1.3,6.97-3.9,9.58-5.75,3.92-9.45,3.92-7.11-1.34-9.67-4.03c-2.57-2.68-3.85-5.87-3.85-9.56,0-2.47.6-4.75,1.79-6.82s2.84-3.72,4.93-4.93,4.35-1.82,6.76-1.82Zm-.05,4.82c-2.39,0-4.41.83-6.04,2.5-1.63,1.66-2.45,3.78-2.45,6.35,0,2.86,1.03,5.12,3.08,6.79,1.6,1.3,3.43,1.95,5.49,1.95,2.33,0,4.32-.84,5.96-2.53s2.46-3.77,2.46-6.24-.83-4.54-2.48-6.25-3.67-2.56-6.04-2.56Z" style="fill: #333; stroke-width: 0px;"/>
    <path d="m630,1044.7h4.92v21.16h7.17v4.69h-12.09v-25.86Z" style="fill: #333; stroke-width: 0px;"/>
    <path d="m659.41,1048.21l-3.65,3.22c-1.28-1.78-2.58-2.67-3.91-2.67-.65,0-1.17.17-1.58.52s-.62.74-.62,1.17.15.84.44,1.23c.4.52,1.6,1.62,3.61,3.32,1.88,1.57,3.02,2.56,3.42,2.97,1,1.01,1.71,1.97,2.12,2.89.42.92.62,1.92.62,3.01,0,2.12-.73,3.87-2.2,5.26-1.47,1.38-3.38,2.07-5.74,2.07-1.84,0-3.45-.45-4.81-1.35-1.37-.9-2.54-2.32-3.51-4.25l4.14-2.5c1.24,2.29,2.68,3.43,4.3,3.43.84,0,1.55-.25,2.13-.74s.86-1.06.86-1.71c0-.59-.22-1.17-.65-1.76-.43-.59-1.39-1.48-2.87-2.69-2.82-2.3-4.64-4.07-5.46-5.32-.82-1.25-1.23-2.49-1.23-3.74,0-1.79.68-3.33,2.05-4.61,1.37-1.28,3.05-1.92,5.06-1.92,1.29,0,2.52.3,3.69.9s2.43,1.69,3.79,3.27Z" style="fill: #333; stroke-width: 0px;"/>
  </g>
  <g>
    <g>
      <path d="m94.4,1212.89h11.85v2.02h-9.79v6.48h9.7v2.02h-9.7v8.13h9.7v2.03h-11.77v-20.69Z" style="fill: #989898; stroke-width: 0px;"/>
      <path d="m127.16,1231.33l3.07,3.88h-2.54l-2.11-2.67c-1.69,1.04-3.59,1.56-5.71,1.56-3.06,0-5.65-1.05-7.75-3.15-2.11-2.1-3.16-4.64-3.16-7.62,0-1.99.48-3.83,1.45-5.53s2.28-3.03,3.94-3.99c1.66-.96,3.49-1.43,5.47-1.43,3.06,0,5.65,1.05,7.75,3.14,2.1,2.1,3.16,4.67,3.16,7.73,0,1.59-.29,3.05-.87,4.37-.58,1.32-1.47,2.56-2.7,3.72Zm-1.28-1.62c1.8-1.75,2.7-3.92,2.7-6.49,0-1.64-.38-3.13-1.15-4.46-.76-1.33-1.84-2.39-3.23-3.19-1.39-.8-2.85-1.2-4.39-1.2s-3,.4-4.37,1.19c-1.37.79-2.44,1.87-3.21,3.22s-1.15,2.86-1.15,4.52c0,2.46.85,4.53,2.54,6.23,1.7,1.69,3.75,2.54,6.15,2.54,1.64,0,3.14-.4,4.5-1.2l-4.61-5.85h2.51l3.7,4.67Z" style="fill: #989898; stroke-width: 0px;"/>
      <path d="m134.98,1212.89h2.07v12.49c0,1.48.03,2.4.08,2.77.1.82.34,1.5.72,2.05.38.55.95,1.01,1.73,1.38s1.56.56,2.35.56c.68,0,1.34-.15,1.97-.44.63-.29,1.15-.69,1.58-1.21s.73-1.14.93-1.87c.14-.53.21-1.6.21-3.23v-12.49h2.07v12.49c0,1.85-.18,3.34-.54,4.48-.36,1.14-1.08,2.13-2.17,2.97s-2.39,1.27-3.93,1.27c-1.67,0-3.1-.4-4.29-1.2s-1.99-1.85-2.39-3.16c-.25-.81-.38-2.26-.38-4.36v-12.49Z" style="fill: #989898; stroke-width: 0px;"/>
      <path d="m153.47,1212.89h2.07v20.69h-2.07v-20.69Z" style="fill: #989898; stroke-width: 0px;"/>
      <path d="m160.26,1212.89h4.12c2.36,0,3.96.1,4.78.31,1.18.29,2.15.89,2.9,1.79.75.91,1.12,2.04,1.12,3.41s-.37,2.52-1.1,3.41c-.73.9-1.74,1.5-3.02,1.81-.94.22-2.69.34-5.26.34h-1.48v9.62h-2.07v-20.69Zm2.07,2.02v7.02l3.5.04c1.42,0,2.45-.13,3.11-.39.66-.26,1.17-.67,1.55-1.25s.56-1.22.56-1.93-.19-1.33-.56-1.9c-.38-.58-.87-.98-1.48-1.23-.61-.24-1.62-.37-3.02-.37h-3.66Z" style="fill: #989898; stroke-width: 0px;"/>
      <path d="m176.38,1233.58l2.96-20.69h.34l8.41,16.97,8.33-16.97h.33l2.98,20.69h-2.03l-2.04-14.79-7.31,14.79h-.53l-7.4-14.91-2.03,14.91h-2Z" style="fill: #989898; stroke-width: 0px;"/>
      <path d="m203.8,1212.89h11.85v2.02h-9.79v6.48h9.7v2.02h-9.7v8.13h9.7v2.03h-11.77v-20.69Z" style="fill: #989898; stroke-width: 0px;"/>
      <path d="m219.24,1233.58v-20.69h.45l13.77,15.86v-15.86h2.04v20.69h-.46l-13.65-15.66v15.66h-2.14Z" style="fill: #989898; stroke-width: 0px;"/>
      <path d="m238.48,1214.92v-2.02h11.33v2.02h-4.61v18.66h-2.11v-18.66h-4.61Z" style="fill: #989898; stroke-width: 0px;"/>
      <path d="m94.82,1247.45h2.07v12.49c0,1.48.03,2.4.08,2.77.1.82.34,1.5.72,2.05.38.55.95,1.01,1.73,1.38s1.56.56,2.35.56c.68,0,1.34-.15,1.97-.44.63-.29,1.15-.69,1.58-1.21s.73-1.14.93-1.87c.14-.53.21-1.6.21-3.23v-12.49h2.07v12.49c0,1.85-.18,3.34-.54,4.48-.36,1.14-1.08,2.13-2.17,2.97s-2.39,1.27-3.93,1.27c-1.67,0-3.1-.4-4.29-1.2s-1.99-1.85-2.39-3.16c-.25-.81-.38-2.26-.38-4.36v-12.49Z" style="fill: #989898; stroke-width: 0px;"/>
      <path d="m111.55,1249.48v-2.02h11.33v2.02h-4.61v18.66h-2.11v-18.66h-4.61Z" style="fill: #989898; stroke-width: 0px;"/>
      <path d="m125.57,1247.45h2.07v20.69h-2.07v-20.69Z" style="fill: #989898; stroke-width: 0px;"/>
      <path d="m132.38,1247.45h2.07v18.69h7.96v2h-10.03v-20.69Z" style="fill: #989898; stroke-width: 0px;"/>
      <path d="m145.39,1247.45h2.07v20.69h-2.07v-20.69Z" style="fill: #989898; stroke-width: 0px;"/>
      <path d="m151.39,1249.45v-2h10.91l-8.64,18.66h8.21v2.03h-11.41l8.72-18.69h-7.79Z" style="fill: #989898; stroke-width: 0px;"/>
      <path d="m174.47,1247.45l9.65,20.69h-2.23l-3.25-6.81h-8.91l-3.22,6.81h-2.31l9.77-20.69h.51Zm-.26,4.39l-3.54,7.49h7.07l-3.53-7.49Z" style="fill: #989898; stroke-width: 0px;"/>
      <path d="m185.27,1249.48v-2.02h11.33v2.02h-4.61v18.66h-2.11v-18.66h-4.61Z" style="fill: #989898; stroke-width: 0px;"/>
      <path d="m199.29,1247.45h2.07v20.69h-2.07v-20.69Z" style="fill: #989898; stroke-width: 0px;"/>
      <path d="m215.94,1246.93c3.13,0,5.75,1.04,7.87,3.14,2.11,2.09,3.17,4.66,3.17,7.72s-1.05,5.6-3.16,7.71c-2.11,2.11-4.67,3.16-7.7,3.16s-5.66-1.05-7.77-3.15c-2.11-2.1-3.17-4.64-3.17-7.62,0-1.99.48-3.83,1.44-5.53.96-1.7,2.27-3.03,3.93-3.99,1.66-.96,3.46-1.44,5.39-1.44Zm.09,2.01c-1.53,0-2.98.4-4.35,1.2-1.37.8-2.44,1.87-3.21,3.22-.77,1.35-1.16,2.86-1.16,4.52,0,2.46.85,4.53,2.56,6.23,1.7,1.69,3.76,2.54,6.16,2.54,1.61,0,3.09-.39,4.46-1.17,1.37-.78,2.43-1.84,3.2-3.2.77-1.35,1.15-2.85,1.15-4.5s-.38-3.13-1.15-4.45c-.76-1.33-1.84-2.39-3.23-3.19s-2.86-1.2-4.42-1.2Z" style="fill: #989898; stroke-width: 0px;"/>
      <path d="m231.14,1268.14v-20.69h.45l13.77,15.86v-15.86h2.04v20.69h-.46l-13.65-15.66v15.66h-2.14Z" style="fill: #989898; stroke-width: 0px;"/>
    </g>
    <g>
      <path d="m93.73,1161.84h2.58v25.86h-2.58v-25.86Z" style="fill: #333; stroke-width: 0px;"/>
      <path d="m101.06,1187.7l3.7-25.86h.42l10.51,21.22,10.41-21.22h.41l3.72,25.86h-2.53l-2.55-18.49-9.14,18.49h-.66l-9.25-18.63-2.54,18.63h-2.5Z" style="fill: #333; stroke-width: 0px;"/>
      <path d="m135.3,1161.84h5.15c2.95,0,4.95.13,5.98.39,1.48.36,2.68,1.11,3.62,2.24s1.41,2.55,1.41,4.26-.46,3.14-1.37,4.26-2.17,1.87-3.78,2.26c-1.17.28-3.36.42-6.57.42h-1.85v12.02h-2.58v-25.86Zm2.58,2.53v8.77l4.38.05c1.77,0,3.06-.16,3.88-.48s1.46-.84,1.93-1.56c.47-.72.7-1.52.7-2.41s-.23-1.66-.7-2.38-1.09-1.23-1.85-1.54-2.02-.46-3.77-.46h-4.57Z" style="fill: #333; stroke-width: 0px;"/>
      <path d="m156.76,1161.84h5.15c2.87,0,4.82.12,5.84.35,1.54.35,2.78,1.11,3.74,2.26.96,1.16,1.44,2.58,1.44,4.27,0,1.41-.33,2.65-.99,3.71s-1.61,1.87-2.84,2.42-2.93.82-5.1.84l9.3,12.01h-3.2l-9.3-12.01h-1.46v12.01h-2.58v-25.86Zm2.58,2.53v8.79l4.45.04c1.73,0,3-.16,3.83-.49s1.47-.85,1.94-1.57c.46-.72.7-1.53.7-2.42s-.23-1.66-.7-2.36c-.47-.71-1.09-1.22-1.85-1.52-.76-.3-2.03-.46-3.8-.46h-4.56Z" style="fill: #333; stroke-width: 0px;"/>
      <path d="m190.78,1161.19c3.92,0,7.19,1.31,9.83,3.92,2.64,2.61,3.96,5.83,3.96,9.65s-1.32,7-3.95,9.63c-2.63,2.64-5.84,3.96-9.63,3.96s-7.07-1.31-9.71-3.94-3.96-5.8-3.96-9.53c0-2.48.6-4.79,1.8-6.91,1.2-2.12,2.84-3.78,4.92-4.98,2.08-1.2,4.32-1.8,6.74-1.8Zm.11,2.51c-1.91,0-3.73.5-5.44,1.5-1.71,1-3.05,2.34-4.01,4.03-.96,1.69-1.44,3.57-1.44,5.65,0,3.07,1.06,5.67,3.2,7.78,2.13,2.12,4.7,3.18,7.7,3.18,2.01,0,3.86-.49,5.57-1.46s3.04-2.3,4-3.99c.96-1.69,1.44-3.57,1.44-5.63s-.48-3.91-1.44-5.57c-.96-1.66-2.3-2.99-4.04-3.99-1.74-1-3.58-1.5-5.53-1.5Z" style="fill: #333; stroke-width: 0px;"/>
      <path d="m207.79,1161.84h2.81l8.57,19.98,8.71-19.98h2.81l-11.25,25.86h-.56l-11.09-25.86Z" style="fill: #333; stroke-width: 0px;"/>
      <path d="m235.06,1161.84h14.82v2.53h-12.23v8.1h12.13v2.53h-12.13v10.16h12.13v2.53h-14.71v-25.86Z" style="fill: #333; stroke-width: 0px;"/>
    </g>
  </g>
  <g>
    <g>
      <path d="m778.82,1213.61h4.12c2.3,0,3.85.09,4.67.28,1.23.28,2.23.88,3,1.81s1.15,2.06,1.15,3.41c0,1.13-.27,2.12-.79,2.97-.53.85-1.29,1.5-2.27,1.94s-2.34.66-4.08.67l7.44,9.6h-2.56l-7.44-9.6h-1.17v9.6h-2.07v-20.69Zm2.07,2.02v7.03l3.56.03c1.38,0,2.4-.13,3.06-.39s1.18-.68,1.55-1.26c.37-.58.56-1.22.56-1.93s-.19-1.32-.56-1.89-.87-.97-1.48-1.22c-.61-.24-1.62-.37-3.04-.37h-3.65Z" style="fill: #989898; stroke-width: 0px;"/>
      <path d="m796.2,1213.61h11.85v2.02h-9.79v6.48h9.7v2.02h-9.7v8.13h9.7v2.03h-11.77v-20.69Z" style="fill: #989898; stroke-width: 0px;"/>
      <path d="m809.49,1230.44l1.76-1.05c1.24,2.28,2.67,3.42,4.29,3.42.69,0,1.34-.16,1.95-.49s1.07-.76,1.39-1.3.48-1.12.48-1.73c0-.69-.23-1.37-.7-2.04-.65-.92-1.83-2.03-3.54-3.32-1.73-1.3-2.8-2.25-3.22-2.83-.73-.98-1.1-2.03-1.1-3.16,0-.9.22-1.72.65-2.46.43-.74,1.04-1.32,1.82-1.75.78-.43,1.63-.64,2.55-.64.97,0,1.89.24,2.74.72.85.48,1.75,1.37,2.69,2.67l-1.69,1.28c-.78-1.03-1.44-1.71-1.99-2.04-.55-.33-1.15-.49-1.79-.49-.83,0-1.52.25-2.05.76-.53.51-.79,1.13-.79,1.87,0,.45.09.89.28,1.31s.53.88,1.03,1.38c.27.26,1.16.95,2.67,2.07,1.79,1.32,3.02,2.5,3.68,3.53.67,1.03,1,2.07,1,3.11,0,1.5-.57,2.8-1.71,3.91-1.14,1.11-2.52,1.66-4.16,1.66-1.26,0-2.4-.34-3.42-1.01s-1.96-1.79-2.83-3.37Z" style="fill: #989898; stroke-width: 0px;"/>
      <path d="m835.83,1213.09c3.13,0,5.75,1.04,7.87,3.14,2.11,2.09,3.17,4.66,3.17,7.72s-1.05,5.6-3.16,7.71c-2.11,2.11-4.67,3.16-7.7,3.16s-5.66-1.05-7.77-3.15c-2.11-2.1-3.17-4.64-3.17-7.62,0-1.99.48-3.83,1.44-5.53.96-1.7,2.27-3.03,3.93-3.99,1.66-.96,3.46-1.44,5.39-1.44Zm.09,2.01c-1.53,0-2.98.4-4.35,1.2-1.37.8-2.44,1.87-3.21,3.22-.77,1.35-1.16,2.86-1.16,4.52,0,2.46.85,4.53,2.56,6.23,1.7,1.69,3.76,2.54,6.16,2.54,1.61,0,3.09-.39,4.46-1.17,1.37-.78,2.43-1.84,3.2-3.2.77-1.35,1.15-2.85,1.15-4.5s-.38-3.13-1.15-4.45c-.76-1.33-1.84-2.39-3.23-3.19s-2.86-1.2-4.42-1.2Z" style="fill: #989898; stroke-width: 0px;"/>
      <path d="m851.08,1213.61h2.07v12.49c0,1.48.03,2.4.08,2.77.1.82.34,1.5.72,2.05.38.55.95,1.01,1.73,1.38s1.56.56,2.35.56c.68,0,1.34-.15,1.97-.44.63-.29,1.15-.69,1.58-1.21s.73-1.14.93-1.87c.14-.53.21-1.6.21-3.23v-12.49h2.07v12.49c0,1.85-.18,3.34-.54,4.48-.36,1.14-1.08,2.13-2.17,2.97s-2.39,1.27-3.93,1.27c-1.67,0-3.1-.4-4.29-1.2s-1.99-1.85-2.39-3.16c-.25-.81-.38-2.26-.38-4.36v-12.49Z" style="fill: #989898; stroke-width: 0px;"/>
      <path d="m869.98,1213.61h4.12c2.3,0,3.85.09,4.67.28,1.23.28,2.23.88,3,1.81s1.15,2.06,1.15,3.41c0,1.13-.27,2.12-.79,2.97-.53.85-1.29,1.5-2.27,1.94s-2.34.66-4.08.67l7.44,9.6h-2.56l-7.44-9.6h-1.17v9.6h-2.07v-20.69Zm2.07,2.02v7.03l3.56.03c1.38,0,2.4-.13,3.06-.39s1.18-.68,1.55-1.26c.37-.58.56-1.22.56-1.93s-.19-1.32-.56-1.89-.87-.97-1.48-1.22c-.61-.24-1.62-.37-3.04-.37h-3.65Z" style="fill: #989898; stroke-width: 0px;"/>
      <path d="m906.61,1217.45l-1.63,1.25c-.9-1.17-1.98-2.06-3.24-2.66-1.26-.61-2.65-.91-4.16-.91-1.65,0-3.18.4-4.58,1.19-1.41.79-2.5,1.86-3.27,3.19s-1.16,2.84-1.16,4.51c0,2.52.87,4.63,2.59,6.31s3.91,2.53,6.55,2.53c2.9,0,5.32-1.13,7.27-3.4l1.63,1.24c-1.03,1.31-2.32,2.33-3.86,3.04-1.54.72-3.26,1.08-5.17,1.08-3.62,0-6.47-1.21-8.56-3.61-1.75-2.03-2.63-4.49-2.63-7.37,0-3.03,1.06-5.58,3.19-7.64s4.78-3.1,7.98-3.1c1.93,0,3.67.38,5.23,1.15,1.56.76,2.83,1.84,3.83,3.21Z" style="fill: #989898; stroke-width: 0px;"/>
      <path d="m910.77,1213.61h11.85v2.02h-9.79v6.48h9.7v2.02h-9.7v8.13h9.7v2.03h-11.77v-20.69Z" style="fill: #989898; stroke-width: 0px;"/>
      <path d="m749.24,1248.17h4.12c2.36,0,3.96.1,4.78.31,1.18.29,2.15.89,2.9,1.79.75.91,1.12,2.04,1.12,3.41s-.37,2.52-1.1,3.41c-.73.9-1.74,1.5-3.02,1.81-.94.22-2.69.34-5.26.34h-1.48v9.62h-2.07v-20.69Zm2.07,2.02v7.02l3.5.04c1.42,0,2.45-.13,3.11-.39.66-.26,1.17-.67,1.55-1.25s.56-1.22.56-1.93-.19-1.33-.56-1.9c-.38-.58-.87-.98-1.48-1.23-.61-.24-1.62-.37-3.02-.37h-3.66Z" style="fill: #989898; stroke-width: 0px;"/>
      <path d="m766.41,1248.17h4.12c2.3,0,3.85.09,4.67.28,1.23.28,2.23.88,3,1.81s1.15,2.06,1.15,3.41c0,1.13-.27,2.12-.79,2.97-.53.85-1.29,1.5-2.27,1.94s-2.34.66-4.08.67l7.44,9.6h-2.56l-7.44-9.6h-1.17v9.6h-2.07v-20.69Zm2.07,2.02v7.03l3.56.03c1.38,0,2.4-.13,3.06-.39s1.18-.68,1.55-1.26c.37-.58.56-1.22.56-1.93s-.19-1.32-.56-1.89-.87-.97-1.48-1.22c-.61-.24-1.62-.37-3.04-.37h-3.65Z" style="fill: #989898; stroke-width: 0px;"/>
      <path d="m793.62,1247.65c3.13,0,5.75,1.04,7.87,3.14,2.11,2.09,3.17,4.66,3.17,7.72s-1.05,5.6-3.16,7.71c-2.11,2.11-4.67,3.16-7.7,3.16s-5.66-1.05-7.77-3.15c-2.11-2.1-3.17-4.64-3.17-7.62,0-1.99.48-3.83,1.44-5.53.96-1.7,2.27-3.03,3.93-3.99,1.66-.96,3.46-1.44,5.39-1.44Zm.09,2.01c-1.53,0-2.98.4-4.35,1.2-1.37.8-2.44,1.87-3.21,3.22-.77,1.35-1.16,2.86-1.16,4.52,0,2.46.85,4.53,2.56,6.23,1.7,1.69,3.76,2.54,6.16,2.54,1.61,0,3.09-.39,4.46-1.17,1.37-.78,2.43-1.84,3.2-3.2.77-1.35,1.15-2.85,1.15-4.5s-.38-3.13-1.15-4.45c-.76-1.33-1.84-2.39-3.23-3.19s-2.86-1.2-4.42-1.2Z" style="fill: #989898; stroke-width: 0px;"/>
      <path d="m807.23,1248.17h2.25l6.86,15.98,6.97-15.98h2.25l-9,20.69h-.45l-8.87-20.69Z" style="fill: #989898; stroke-width: 0px;"/>
      <path d="m828.73,1248.17h2.07v20.69h-2.07v-20.69Z" style="fill: #989898; stroke-width: 0px;"/>
      <path d="m833.4,1265l1.76-1.05c1.24,2.28,2.67,3.42,4.29,3.42.69,0,1.34-.16,1.95-.49s1.07-.76,1.39-1.3.48-1.12.48-1.73c0-.69-.23-1.37-.7-2.04-.65-.92-1.83-2.03-3.54-3.32-1.73-1.3-2.8-2.25-3.22-2.83-.73-.98-1.1-2.03-1.1-3.16,0-.9.22-1.72.65-2.46.43-.74,1.04-1.32,1.82-1.75.78-.43,1.63-.64,2.55-.64.97,0,1.89.24,2.74.72.85.48,1.75,1.37,2.69,2.67l-1.69,1.28c-.78-1.03-1.44-1.71-1.99-2.04-.55-.33-1.15-.49-1.79-.49-.83,0-1.52.25-2.05.76-.53.51-.79,1.13-.79,1.87,0,.45.09.89.28,1.31s.53.88,1.03,1.38c.27.26,1.16.95,2.67,2.07,1.79,1.32,3.02,2.5,3.68,3.53.67,1.03,1,2.07,1,3.11,0,1.5-.57,2.8-1.71,3.91-1.14,1.11-2.52,1.66-4.16,1.66-1.26,0-2.4-.34-3.42-1.01s-1.96-1.79-2.83-3.37Z" style="fill: #989898; stroke-width: 0px;"/>
      <path d="m849.59,1248.17h2.07v20.69h-2.07v-20.69Z" style="fill: #989898; stroke-width: 0px;"/>
      <path d="m866.24,1247.65c3.13,0,5.75,1.04,7.87,3.14,2.11,2.09,3.17,4.66,3.17,7.72s-1.05,5.6-3.16,7.71c-2.11,2.11-4.67,3.16-7.7,3.16s-5.66-1.05-7.77-3.15c-2.11-2.1-3.17-4.64-3.17-7.62,0-1.99.48-3.83,1.44-5.53.96-1.7,2.27-3.03,3.93-3.99,1.66-.96,3.46-1.44,5.39-1.44Zm.09,2.01c-1.53,0-2.98.4-4.35,1.2-1.37.8-2.44,1.87-3.21,3.22-.77,1.35-1.16,2.86-1.16,4.52,0,2.46.85,4.53,2.56,6.23,1.7,1.69,3.76,2.54,6.16,2.54,1.61,0,3.09-.39,4.46-1.17,1.37-.78,2.43-1.84,3.2-3.2.77-1.35,1.15-2.85,1.15-4.5s-.38-3.13-1.15-4.45c-.76-1.33-1.84-2.39-3.23-3.19s-2.86-1.2-4.42-1.2Z" style="fill: #989898; stroke-width: 0px;"/>
      <path d="m881.44,1268.86v-20.69h.45l13.77,15.86v-15.86h2.04v20.69h-.46l-13.65-15.66v15.66h-2.14Z" style="fill: #989898; stroke-width: 0px;"/>
      <path d="m902.43,1248.17h2.07v20.69h-2.07v-20.69Z" style="fill: #989898; stroke-width: 0px;"/>
      <path d="m909.25,1268.86v-20.69h.45l13.77,15.86v-15.86h2.04v20.69h-.46l-13.65-15.66v15.66h-2.14Z" style="fill: #989898; stroke-width: 0px;"/>
      <path d="m950.5,1251.64l-1.6,1.52c-1.15-1.13-2.42-2-3.79-2.58-1.37-.59-2.71-.88-4.01-.88-1.62,0-3.17.4-4.63,1.2-1.47.8-2.6,1.88-3.41,3.24-.81,1.36-1.21,2.81-1.21,4.32s.42,3.04,1.25,4.44c.83,1.4,1.99,2.5,3.46,3.3,1.47.8,3.08,1.2,4.84,1.2,2.13,0,3.93-.6,5.4-1.8,1.47-1.2,2.34-2.76,2.62-4.67h-6.6v-2h8.92c-.02,3.2-.97,5.74-2.85,7.62-1.88,1.88-4.39,2.82-7.54,2.82-3.82,0-6.85-1.3-9.08-3.91-1.72-2.01-2.57-4.33-2.57-6.96,0-1.96.49-3.78,1.48-5.47s2.33-3.01,4.05-3.96c1.72-.95,3.66-1.43,5.82-1.43,1.75,0,3.4.32,4.95.95s3.06,1.65,4.53,3.04Z" style="fill: #989898; stroke-width: 0px;"/>
    </g>
    <g>
      <path d="m783.06,1161.13h12.96v2.53h-10.37v8.1h10.37v2.53h-10.37v12.69h-2.58v-25.86Z" style="fill: #333; stroke-width: 0px;"/>
      <path d="m800.52,1161.13h2.58v23.36h9.95v2.5h-12.53v-25.86Z" style="fill: #333; stroke-width: 0px;"/>
      <path d="m817.16,1161.13h14.82v2.53h-12.23v8.1h12.13v2.53h-12.13v10.16h12.13v2.53h-14.71v-25.86Z" style="fill: #333; stroke-width: 0px;"/>
      <path d="m835.08,1161.13h3.02l6.19,10.06,6.23-10.06h2.98l-7.71,12.49,8.22,13.36h-3.02l-6.71-10.91-6.74,10.91h-3.02l8.26-13.35-7.7-12.51Z" style="fill: #333; stroke-width: 0px;"/>
      <path d="m858,1161.13h2.58v25.86h-2.58v-25.86Z" style="fill: #333; stroke-width: 0px;"/>
      <path d="m866.58,1161.13h5.1c2.05,0,3.63.24,4.73.73s1.97,1.23,2.61,2.24.96,2.13.96,3.36c0,1.15-.28,2.19-.84,3.14s-1.38,1.71-2.47,2.29c1.34.46,2.38.99,3.1,1.61.72.62,1.29,1.36,1.69,2.23.4.87.61,1.82.61,2.84,0,2.07-.76,3.83-2.28,5.26s-3.55,2.15-6.11,2.15h-7.1v-25.86Zm2.53,2.53v8.28h1.48c1.8,0,3.12-.17,3.96-.5.84-.33,1.51-.86,2.01-1.58s.74-1.52.74-2.4c0-1.18-.41-2.11-1.24-2.79s-2.15-1.01-3.96-1.01h-2.99Zm0,10.88v9.91h3.2c1.89,0,3.28-.18,4.16-.55.88-.37,1.59-.95,2.12-1.73s.8-1.63.8-2.55c0-1.15-.38-2.15-1.13-3.01s-1.78-1.44-3.1-1.76c-.88-.21-2.41-.32-4.6-.32h-1.46Z" style="fill: #333; stroke-width: 0px;"/>
      <path d="m887.18,1161.13h2.58v23.36h9.95v2.5h-12.53v-25.86Z" style="fill: #333; stroke-width: 0px;"/>
      <path d="m903.82,1161.13h14.82v2.53h-12.23v8.1h12.13v2.53h-12.13v10.16h12.13v2.53h-14.71v-25.86Z" style="fill: #333; stroke-width: 0px;"/>
    </g>
  </g>
  <g>
    <g>
      <path d="m439.32,1212.89h4.12c2.3,0,3.85.09,4.67.28,1.23.28,2.23.88,3,1.81s1.15,2.06,1.15,3.41c0,1.13-.27,2.12-.79,2.97-.53.85-1.29,1.5-2.27,1.94s-2.34.66-4.08.67l7.44,9.6h-2.56l-7.44-9.6h-1.17v9.6h-2.07v-20.69Zm2.07,2.02v7.03l3.56.03c1.38,0,2.4-.13,3.06-.39s1.18-.68,1.55-1.26c.37-.58.56-1.22.56-1.93s-.19-1.32-.56-1.89-.87-.97-1.48-1.22c-.61-.24-1.62-.37-3.04-.37h-3.65Z" style="fill: #989898; stroke-width: 0px;"/>
      <path d="m456.7,1212.89h11.85v2.02h-9.79v6.48h9.7v2.02h-9.7v8.13h9.7v2.03h-11.77v-20.69Z" style="fill: #989898; stroke-width: 0px;"/>
      <path d="m469.99,1229.73l1.76-1.05c1.24,2.28,2.67,3.42,4.29,3.42.69,0,1.34-.16,1.95-.49s1.07-.76,1.39-1.3.48-1.12.48-1.73c0-.69-.23-1.37-.7-2.04-.65-.92-1.83-2.03-3.54-3.32-1.73-1.3-2.8-2.25-3.22-2.83-.73-.98-1.1-2.03-1.1-3.16,0-.9.22-1.72.65-2.46.43-.74,1.04-1.32,1.82-1.75.78-.43,1.63-.64,2.55-.64.97,0,1.89.24,2.74.72.85.48,1.75,1.37,2.69,2.67l-1.69,1.28c-.78-1.03-1.44-1.71-1.99-2.04-.55-.33-1.15-.49-1.79-.49-.83,0-1.52.25-2.05.76-.53.51-.79,1.13-.79,1.87,0,.45.09.89.28,1.31s.53.88,1.03,1.38c.27.26,1.16.95,2.67,2.07,1.79,1.32,3.02,2.5,3.68,3.53.67,1.03,1,2.07,1,3.11,0,1.5-.57,2.8-1.71,3.91-1.14,1.11-2.52,1.66-4.16,1.66-1.26,0-2.4-.34-3.42-1.01s-1.96-1.79-2.83-3.37Z" style="fill: #989898; stroke-width: 0px;"/>
      <path d="m496.32,1212.37c3.13,0,5.75,1.04,7.87,3.14,2.11,2.09,3.17,4.66,3.17,7.72s-1.05,5.6-3.16,7.71c-2.11,2.11-4.67,3.16-7.7,3.16s-5.66-1.05-7.77-3.15c-2.11-2.1-3.17-4.64-3.17-7.62,0-1.99.48-3.83,1.44-5.53.96-1.7,2.27-3.03,3.93-3.99,1.66-.96,3.46-1.44,5.39-1.44Zm.09,2.01c-1.53,0-2.98.4-4.35,1.2-1.37.8-2.44,1.87-3.21,3.22-.77,1.35-1.16,2.86-1.16,4.52,0,2.46.85,4.53,2.56,6.23,1.7,1.69,3.76,2.54,6.16,2.54,1.61,0,3.09-.39,4.46-1.17,1.37-.78,2.43-1.84,3.2-3.2.77-1.35,1.15-2.85,1.15-4.5s-.38-3.13-1.15-4.45c-.76-1.33-1.84-2.39-3.23-3.19s-2.86-1.2-4.42-1.2Z" style="fill: #989898; stroke-width: 0px;"/>
      <path d="m511.57,1212.89h2.07v12.49c0,1.48.03,2.4.08,2.77.1.82.34,1.5.72,2.05.38.55.95,1.01,1.73,1.38s1.56.56,2.35.56c.68,0,1.34-.15,1.97-.44.63-.29,1.15-.69,1.58-1.21s.73-1.14.93-1.87c.14-.53.21-1.6.21-3.23v-12.49h2.07v12.49c0,1.85-.18,3.34-.54,4.48-.36,1.14-1.08,2.13-2.17,2.97s-2.39,1.27-3.93,1.27c-1.67,0-3.1-.4-4.29-1.2s-1.99-1.85-2.39-3.16c-.25-.81-.38-2.26-.38-4.36v-12.49Z" style="fill: #989898; stroke-width: 0px;"/>
      <path d="m530.47,1212.89h4.12c2.3,0,3.85.09,4.67.28,1.23.28,2.23.88,3,1.81s1.15,2.06,1.15,3.41c0,1.13-.27,2.12-.79,2.97-.53.85-1.29,1.5-2.27,1.94s-2.34.66-4.08.67l7.44,9.6h-2.56l-7.44-9.6h-1.17v9.6h-2.07v-20.69Zm2.07,2.02v7.03l3.56.03c1.38,0,2.4-.13,3.06-.39s1.18-.68,1.55-1.26c.37-.58.56-1.22.56-1.93s-.19-1.32-.56-1.89-.87-.97-1.48-1.22c-.61-.24-1.62-.37-3.04-.37h-3.65Z" style="fill: #989898; stroke-width: 0px;"/>
      <path d="m567.11,1216.73l-1.63,1.25c-.9-1.17-1.98-2.06-3.24-2.66-1.26-.61-2.65-.91-4.16-.91-1.65,0-3.18.4-4.58,1.19-1.41.79-2.5,1.86-3.27,3.19s-1.16,2.84-1.16,4.51c0,2.52.87,4.63,2.59,6.31s3.91,2.53,6.55,2.53c2.9,0,5.32-1.13,7.27-3.4l1.63,1.24c-1.03,1.31-2.32,2.33-3.86,3.04-1.54.72-3.26,1.08-5.17,1.08-3.62,0-6.47-1.21-8.56-3.61-1.75-2.03-2.63-4.49-2.63-7.37,0-3.03,1.06-5.58,3.19-7.64s4.78-3.1,7.98-3.1c1.93,0,3.67.38,5.23,1.15,1.56.76,2.83,1.84,3.83,3.21Z" style="fill: #989898; stroke-width: 0px;"/>
      <path d="m571.27,1212.89h11.85v2.02h-9.79v6.48h9.7v2.02h-9.7v8.13h9.7v2.03h-11.77v-20.69Z" style="fill: #989898; stroke-width: 0px;"/>
      <path d="m430.02,1247.45l9.65,20.69h-2.23l-3.25-6.81h-8.91l-3.22,6.81h-2.31l9.77-20.69h.51Zm-.26,4.39l-3.54,7.49h7.07l-3.53-7.49Z" style="fill: #989898; stroke-width: 0px;"/>
      <path d="m442.87,1247.45h2.07v18.69h7.96v2h-10.03v-20.69Z" style="fill: #989898; stroke-width: 0px;"/>
      <path d="m456.17,1247.45h2.07v18.69h7.96v2h-10.03v-20.69Z" style="fill: #989898; stroke-width: 0px;"/>
      <path d="m479.33,1246.93c3.13,0,5.75,1.04,7.87,3.14,2.11,2.09,3.17,4.66,3.17,7.72s-1.05,5.6-3.16,7.71c-2.11,2.11-4.67,3.16-7.7,3.16s-5.66-1.05-7.77-3.15c-2.11-2.1-3.17-4.64-3.17-7.62,0-1.99.48-3.83,1.44-5.53.96-1.7,2.27-3.03,3.93-3.99,1.66-.96,3.46-1.44,5.39-1.44Zm.09,2.01c-1.53,0-2.98.4-4.35,1.2-1.37.8-2.44,1.87-3.21,3.22-.77,1.35-1.16,2.86-1.16,4.52,0,2.46.85,4.53,2.56,6.23,1.7,1.69,3.76,2.54,6.16,2.54,1.61,0,3.09-.39,4.46-1.17,1.37-.78,2.43-1.84,3.2-3.2.77-1.35,1.15-2.85,1.15-4.5s-.38-3.13-1.15-4.45c-.76-1.33-1.84-2.39-3.23-3.19s-2.86-1.2-4.42-1.2Z" style="fill: #989898; stroke-width: 0px;"/>
      <path d="m513.77,1251.29l-1.63,1.25c-.9-1.17-1.98-2.06-3.24-2.66-1.26-.61-2.65-.91-4.16-.91-1.65,0-3.18.4-4.58,1.19-1.41.79-2.5,1.86-3.27,3.19s-1.16,2.84-1.16,4.51c0,2.52.87,4.63,2.59,6.31s3.91,2.53,6.55,2.53c2.9,0,5.32-1.13,7.27-3.4l1.63,1.24c-1.03,1.31-2.32,2.33-3.86,3.04-1.54.72-3.26,1.08-5.17,1.08-3.62,0-6.47-1.21-8.56-3.61-1.75-2.03-2.63-4.49-2.63-7.37,0-3.03,1.06-5.58,3.19-7.64s4.78-3.1,7.98-3.1c1.93,0,3.67.38,5.23,1.15,1.56.76,2.83,1.84,3.83,3.21Z" style="fill: #989898; stroke-width: 0px;"/>
      <path d="m526.37,1247.45l9.65,20.69h-2.23l-3.25-6.81h-8.91l-3.22,6.81h-2.31l9.77-20.69h.51Zm-.26,4.39l-3.54,7.49h7.07l-3.53-7.49Z" style="fill: #989898; stroke-width: 0px;"/>
      <path d="m537.17,1249.48v-2.02h11.33v2.02h-4.61v18.66h-2.11v-18.66h-4.61Z" style="fill: #989898; stroke-width: 0px;"/>
      <path d="m551.19,1247.45h2.07v20.69h-2.07v-20.69Z" style="fill: #989898; stroke-width: 0px;"/>
      <path d="m567.85,1246.93c3.13,0,5.75,1.04,7.87,3.14,2.11,2.09,3.17,4.66,3.17,7.72s-1.05,5.6-3.16,7.71c-2.11,2.11-4.67,3.16-7.7,3.16s-5.66-1.05-7.77-3.15c-2.11-2.1-3.17-4.64-3.17-7.62,0-1.99.48-3.83,1.44-5.53.96-1.7,2.27-3.03,3.93-3.99,1.66-.96,3.46-1.44,5.39-1.44Zm.09,2.01c-1.53,0-2.98.4-4.35,1.2-1.37.8-2.44,1.87-3.21,3.22-.77,1.35-1.16,2.86-1.16,4.52,0,2.46.85,4.53,2.56,6.23,1.7,1.69,3.76,2.54,6.16,2.54,1.61,0,3.09-.39,4.46-1.17,1.37-.78,2.43-1.84,3.2-3.2.77-1.35,1.15-2.85,1.15-4.5s-.38-3.13-1.15-4.45c-.76-1.33-1.84-2.39-3.23-3.19s-2.86-1.2-4.42-1.2Z" style="fill: #989898; stroke-width: 0px;"/>
      <path d="m583.05,1268.14v-20.69h.45l13.77,15.86v-15.86h2.04v20.69h-.46l-13.65-15.66v15.66h-2.14Z" style="fill: #989898; stroke-width: 0px;"/>
    </g>
    <g>
      <path d="m433.09,1161.84h14.82v2.53h-12.23v8.1h12.13v2.53h-12.13v10.16h12.13v2.53h-14.71v-25.86Z" style="fill: #333; stroke-width: 0px;"/>
      <path d="m452.37,1161.84h12.96v2.53h-10.37v8.1h10.37v2.53h-10.37v12.69h-2.58v-25.86Z" style="fill: #333; stroke-width: 0px;"/>
      <path d="m469.83,1161.84h12.96v2.53h-10.37v8.1h10.37v2.53h-10.37v12.69h-2.58v-25.86Z" style="fill: #333; stroke-width: 0px;"/>
      <path d="m486.91,1161.84h2.58v25.86h-2.58v-25.86Z" style="fill: #333; stroke-width: 0px;"/>
      <path d="m519.5,1166.64l-2.04,1.56c-1.12-1.46-2.48-2.58-4.05-3.33s-3.31-1.13-5.19-1.13c-2.06,0-3.97.5-5.73,1.49s-3.12,2.32-4.09,3.99-1.45,3.55-1.45,5.63c0,3.15,1.08,5.78,3.24,7.89s4.89,3.16,8.18,3.16c3.62,0,6.65-1.42,9.09-4.25l2.04,1.55c-1.29,1.64-2.9,2.91-4.83,3.81s-4.08,1.34-6.46,1.34c-4.52,0-8.09-1.51-10.71-4.52-2.19-2.54-3.29-5.61-3.29-9.21,0-3.79,1.33-6.97,3.98-9.55s5.98-3.88,9.98-3.88c2.41,0,4.59.48,6.54,1.43s3.54,2.29,4.78,4.02Z" style="fill: #333; stroke-width: 0px;"/>
      <path d="m524.32,1161.84h2.58v25.86h-2.58v-25.86Z" style="fill: #333; stroke-width: 0px;"/>
      <path d="m532.85,1161.84h14.82v2.53h-12.23v8.1h12.13v2.53h-12.13v10.16h12.13v2.53h-14.71v-25.86Z" style="fill: #333; stroke-width: 0px;"/>
      <path d="m552.15,1187.7v-25.86h.56l17.21,19.82v-19.82h2.55v25.86h-.58l-17.07-19.58v19.58h-2.67Z" style="fill: #333; stroke-width: 0px;"/>
      <path d="m576.19,1164.38v-2.53h14.17v2.53h-5.77v23.33h-2.64v-23.33h-5.77Z" style="fill: #333; stroke-width: 0px;"/>
    </g>
  </g>
</svg>